<?xml version="1.0" encoding="UTF-8"?>
<svg viewBox="0 0 1186 844" xmlns="http://www.w3.org/2000/svg">
 <g fill-rule="evenodd" stroke-width=".5">
  <g fill="#fff" stroke="#fff">
   <path d="m0 228.5v-228.5h1186v782h-206l-20-0.2q-20-0.3-21-0.6l-1-0.2-0.2-0.5-0.3-0.5-0.3-0.2-0.2-0.3-0.2-0.3-0.3-0.2-0.5-1-0.5-1-0.5-1q-0.5-1-0.8-1.2-0.2-0.3-9.7-3.6-9.5-3.2-9.5-5.2t-1-2-2-2.5l-1-2.5-1-2q-1-2 10.2-3.5 11.3-1.5 14.3-4.5t3.5-6.5 0.8-4.5l0.2-1 0.8-3.5q0.7-3.5 8.4-3.7 7.8-0.3 12-3.6 4.3-3.2 10.3-12.7t46.5-84 41.8-78.5q1.2-4-0.6-4-1.7 0-8.2 10.5t-49 87-42.8 76.7l-0.2 0.3-0.2 0.3-0.3 0.2-0.3 0.2-0.2 0.3-0.2 0.3-0.3 0.2-0.3 0.2-0.2 0.3-0.2 0.3-0.3 0.2-0.3 0.2-0.2 0.3-0.2 0.3-0.3 0.2-0.3 0.2-0.2 0.3-0.2 0.3-0.3 0.2-0.3 0.2-0.2 0.3-0.2 0.3-0.3 0.2v-2l0.5-1.5q0.5-1.5-0.2-2.3-0.8-0.7-1.6-3.4l-0.7-2.8-0.3 0.2-0.2 0.3-1.5 0.5-1.5 0.5-2.5 0.5q-2.5 0.5-1 2.2 1.5 1.8-3.5 0.6-5-1.3-46.5-1.8t-43.5-1.5-75.5-0.3l-73.5 0.8h-0.2q-0.3 0-2.6 1.2-2.2 1.3-65.2 2.6l-63 1.2v-0.5l-1-0.5-1-0.5 0.2-0.3 0.3-0.2 0.3-0.2 0.2-0.3 3-0.5 3-0.5h2l35-1q35-1 36.2-2.7 1.3-1.8 1.8-13.8t1-18.5 0.8-15.5l0.2-9 0.2-1 0.3-1 1.7-5.2q1.8-5.3 14.8-5.3t24 0h11l3.5-0.5 3.5-0.5 0.5-0.3 0.5-0.2 20-1.8q20-1.7 38-2.7t36.5-3 31-2 19.5 0h7v-0.5h0.5l0.3-0.2 0.2-0.3 0.2-0.3 0.3-0.2 0.3-0.2 0.2-0.3 0.2-0.3 0.3-0.2 0.3-0.2 0.2-0.3 0.2-0.3 0.3-0.2 0.3-0.2 0.2-0.3 0.2-0.3 0.3-0.2 0.5-1 0.5-1 0.3-0.2 0.2-0.3 3.5-0.5q3.5-0.5 4.3-1.2 0.7-0.8 1.2-6.3t-0.5-7-6.7-4.7q-5.8-3.3-8-9-2.3-5.8-8.6-10-6.2-4.3-21.2-8.8t-32.5-8-51.3-12.8l-33.7-9.2-0.3-0.2-0.2-0.3-0.2-0.3-0.3-0.2-0.3-0.2-0.2-0.3-0.2-0.3-0.3-0.2-0.3-0.2-0.2-0.3-0.2-0.3-0.3-0.2v-7l0.3-0.2 0.2-0.3 0.2-0.3q0.3-0.2 0.6-0.7l0.2-0.5h0.2q0.3 0 6.3-4.5t10.5-10 4.5-15-1.7-10q-1.8-0.5-1.8-2.5v-2l-1-0.2-1-0.3h-4q-4 0-5.8 2.7-1.7 2.8-2.2 1.8t-11 9.5-16.2 13.7q-5.8 3.3-12.3 8.3l-6.5 5h-4l-0.2-0.3-0.3-0.2-0.5-1-0.5-1-0.5-1.5q-0.5-1.5-2-5t-4.8-11.3q-3.2-7.7-5-11l-1.7-3.2-0.5-1-0.5-1-0.5-1-0.5-1-0.3-0.2q-0.2-0.3-0.7-0.6l-0.5-0.2-0.2-0.5q-0.3-0.5-0.6-0.5h-0.2l-0.2-0.5q-0.3-0.5-0.3-16t-1.3-42.5l-1.2-27-0.2-2.5-0.3-2.5-0.3-0.2-0.2-0.3 0.2-0.3 0.3-0.2v-1q0-1-0.3-2-0.2-1-4.7-2.5t-7.7-36.5q-3.3-35-1.8-46.5t0.5-31-1.7-20.7q-0.8-1.3-4.6-3-3.7-1.8-7.2-13.3t-7.8-20l-4.2-8.5-0.2-1.5q-0.3-1.5-2-3.3-1.8-1.7-3.3-5.2t-2.3-6.8l-0.7-3.2-0.3-0.2-0.2-0.3-1-0.5-1-0.5h-5l-1 0.5-1 0.5-0.2 0.3-0.3 0.2-0.3 0.2-0.2 0.3-0.2 0.3-0.3 0.2-0.3 0.2-0.2 0.3-0.2 0.3-0.3 0.2-0.5 1-0.5 1 1 16q1 16 1.5 24l0.5 8v6l-0.3 1-0.2 1h-2l-0.2-1-0.3-1-0.5-1-0.5-1-0.5-1-0.5-1-0.5-1.5q-0.5-1.5-1.5-6.5t-5-17l-4-12-0.3-0.2-0.2-0.3-0.2-0.3-0.3-0.2-0.3-0.2-0.2-0.3-0.2-0.3-0.3-0.2-0.3-0.2-0.2-0.3h-6l-1 0.3-1 0.2-0.2 1-0.3 1-0.3 0.2-0.2 0.3-0.2 0.3-0.3 0.2v7.5q0 7.5 2 22t1 33-1.5 20.5-0.8 4.5l-0.2 2.5h-0.2q-0.3 0-1.3 7.5t-4 14.5-7.7 11.8q-4.8 4.7-9.8 5.2t-8.2-1.2q-3.3-1.8-10.6-6-7.2-4.3-14.2-5.6l-7-1.2-0.2-0.5q-0.3-0.5-2-1l-1.8-0.5 0.2-1q0.3-1 0.6-2l0.2-1h0.2q0.3 0 1.3-2t1.7-22q0.8-20 2.3-20.8 1.5-0.7 2.7-4.4 1.3-3.8 2.8-5.8t6.2-2.5l4.8-0.5 1-0.2 1-0.3 0.2-0.3 0.3-0.2 0.3-0.2 0.2-0.3 0.2-0.3 0.3-0.2 0.3-0.2 0.2-0.3 0.2-0.3 0.3-0.2 0.5-1 0.5-1 0.5-1 0.5-1v-2.5q0-2.5 0-5.5t5.7-19.5q5.8-16.5 10-18.5l4.3-2 0.3-0.2 0.2-0.3 1.5-0.3 1.5-0.2 8.8-3.5q8.7-3.5 10-6.3 1.2-2.7 3.4-5 2.3-2.2 5.8-10.7t5-16.5 1.2-12q-0.2-4-1.2-4t0.5-2.8q1.5-2.7 2.5-3 1-0.2 1.2-1.2l0.3-1 0.3-0.2 0.2-0.3 0.2-0.3 0.3-0.2 0.3-1 0.2-1-1 0.2-1 0.3-0.2 0.3-0.3 0.2-0.3 0.2-0.2 0.3-1 0.5-1 0.5h-2q-2 0-2.8-2.3-0.7-2.2-3-2.4l-2.2-0.3-0.2-0.3-0.3-0.2-0.5 1.5q-0.5 1.5-0.8 3-0.2 1.5-1.7 1.7l-1.5 0.3-0.2 0.3-0.3 0.2-0.3 0.2-0.2 0.3-0.2 0.3-0.3 0.2-0.3 0.2-0.2 0.3h-3l0.2-0.3 0.3-0.2 0.5-1 0.5-1 0.3-0.2q0.2-0.3 0.4-2.6l0.3-2.2-0.3-0.2-0.2-0.3 0.2-0.3 0.3-0.2 0.3-0.2 0.2-0.3h-3.5q-3.5 0-5.5 0.7-2 0.8-2 1.8v1h-2l0.2-2 0.3-2 0.3-1.5q0.2-1.5-0.8-1.7-1-0.3 1-1.6 2-1.2 2-2.2t-1-1-1.2-1.5q-0.3-1.5-0.8-0.5t-0.5-4v-5l-0.3 0.2q-0.2 0.3-0.7 1.6-0.5 1.2-1.5 1.2t-0.8-1q0.3-1-0.4-1.8-0.8-0.7-1.8-0.2l-1 0.5-1 0.5-1 0.5-0.2 0.3-0.3 0.2-0.3 0.2-0.2 0.3-0.2 0.3-0.3 0.2v-2l0.3-0.2 0.2-0.3 1.2-1.3q1.3-1.2 1.3-2.7v-1.5l-0.3 0.2-0.2 0.3-2.5 0.3q-2.5 0.2-2.5 1.7v1.5h-2l0.2-1.5q0.3-1.5-0.4-2-0.8-0.5-1.3-4t-1.5-3.7q-1-0.3-2.2-4l-1.3-3.8-0.3 0.2-0.2 0.3-0.2 0.3-0.3 0.2-0.3 0.2-0.2 0.3 0.2 0.3 0.3 0.2v1q0 1-0.7 1.8-0.8 0.7-1.6 2l-0.7 1.2-0.3-0.2-0.2-0.3-0.2-0.3-0.3-0.2-0.3-0.2-0.2-0.3-0.2-0.3q-0.3-0.2-3-3.7-2.8-3.5-4.3-3.7-1.5-0.3-5-4l-3.5-3.8-0.2-0.5q-0.3-0.5-7.6-5.7-7.2-5.3-9-7.6-1.7-2.2-4-3.4-2.2-1.3-3.4-2.6-1.3-1.2-3-2-1.8-0.7-12.8-7.2t-13.2-7.8q-2.3-1.2-13-3.4-10.8-2.3-12-4-1.3-1.8-1.8-0.8t-1.8 0.5l-1.2-0.5-0.2-0.5q-0.3-0.5-3.6-0.3-3.2 0.3-6.2-0.7t-6.5-2.5-4-0.8q-0.5 0.8-2.5 0.3t-3-3-2-2.3q-1 0.3-1 2.6 0 2.2-3 2.4-3 0.3-6.5-0.2t-3.7 0.8q-0.3 1.2-4 1.7l-3.8 0.5v-2.5q0-2.5-1-2.3l-1 0.3-0.2 0.3q-0.3 0.2-0.3 2.2t-1 0.5l-1-1.5-0.3 0.2-0.2 0.3-0.2 0.3-0.3 0.2-0.3 0.2-0.2 0.3-0.2 0.3-0.3 0.2-0.3 0.2q-0.2 0.3-1.7 0.8l-1.5 0.5-0.2 0.3-0.3 0.2-0.3 0.2-0.2 0.3-0.2 0.3-0.3 0.2-0.5 1-0.5 1-0.3 0.2-0.2 0.3 1.5 0.5 1.5 0.5 1 0.3 1 0.2v5l-1.5 0.2-1.5 0.3-0.2 0.3-0.3 0.2-0.3 1.5q-0.2 1.5-1.2 1.3-1-0.3-12.5 3.4-11.5 3.8-12 5.8t-2.5 3.2q-2 1.3-3.2 5-1.3 3.8-2 5-0.8 1.3-1.3 0.6-0.5-0.8-1.5-0.8t-1.8 3l-0.7 3-0.3 0.2-0.2 0.3-0.2 0.3-0.3 0.2-0.3 0.2-0.2 0.3-0.2 0.3-0.3 0.2-0.3 0.2-0.2 0.3-1 0.3-1 0.2 0.2-1 0.3-1 0.5-1.5 0.5-1.5 0.3-1 0.2-1h-2l-0.2 1-0.3 1-0.5 1.5-0.5 1.5-0.5 6.5q-0.5 6.5-0.2 6.7l0.2 0.3-1.5 0.3-1.5 0.2 0.2 1 0.3 1 0.3 0.2 0.2 0.3h-2l-1-0.3q-1-0.2-1-1.7t-1-1.5-1.5 2-1.5 2-0.5 5-0.7 4.5q-1.3-0.5-2 1.5-0.8 2-2 2.5l-1.3 0.5-0.3 0.2-0.2 0.3-0.2 0.3-0.3 0.2-0.3 0.2-0.2 0.3 0.2 0.3 0.3 0.2 0.3 0.2 0.2 0.3 0.2 0.3 0.3 0.2v1h-0.5l-0.5-0.2q-0.5-0.3-1 1-0.5 1.2-2.5 1.4-2 0.3-3.5 2-1.5 1.8 0.3 1.8 1.7 0-0.6 1.5-2.2 1.5-2.2 3v1.5l-1-0.2q-1-0.3-3.5-0.3t-3.5-1.7q-1-1.8-3-1.8h-2l-0.2 1-0.3 1v3l0.3 4q0.2 4-0.6 4.5-0.7 0.5 0 2 0.8 1.5 2.8 2.3 2 0.7-0.2 0.4-2.3-0.2-2 1 0.2 1.3 2.2 2.3t0.5 2-0.5 1.3q1 0.2 1.5 2 0.5 1.7-1.5 2-2 0.2-0.5 3 1.5 2.7 2.5 3.2l1 0.5 0.2 0.3 0.3 0.2 0.3 0.2 0.2 0.3 0.2 0.3 0.3 0.2 0.3 0.2 0.2 0.3h-11l0.2 0.3 0.3 0.2 0.3 0.2 0.2 0.3 0.2 0.3 0.3 0.2 0.3 0.2 0.2 0.3 0.2 0.3 0.3 0.2 0.3 0.2 0.2 0.3 3 1q3 1 4 1.3l1 0.2 0.2 1.5 0.3 1.5v1l-0.3 0.2-0.2 0.3-0.2 0.3-0.3 0.2-0.3 0.2-0.2 0.3-0.2 0.3q-0.3 0.2-4 1l-3.8 0.7 2.5 0.5q2.5 0.5 4.5 1l2 0.5 1 0.3 1 0.2-0.2 1.5-0.3 1.5-0.3 0.2-0.2 0.3-1 0.5-1 0.5-1 0.5-1 0.5-2 0.5q-2 0.5-2.5 1t-3 1l-2.5 0.5-0.2 0.3-0.3 0.2-0.3 0.2-0.2 0.3-0.2 0.3-0.3 0.2-0.3-0.2-0.2-0.3-0.2-0.3-0.3-0.2-0.3 1.5-0.2 1.5 1 0.2 1 0.3 3.5 3q3.5 3 6 3.3l2.5 0.2-1.2 3.5q-1.3 3.5-3.8 9t-2.8 8.5q-0.2 3 0.8 3t1 2v2.2q0 0.3 0.5 0.6l0.5 0.2-2.5 4.8q-2.5 4.7-7 9.7t-5.5 5.3l-1 0.2v-0.2q0-0.3-2.5-1.6-2.5-1.2-2.7-2.2-0.3-1-3-1-2.8 0-3 1-0.3 1-16.8 16t-16.2 21l0.2 6h-5l-7-0.8q-7-0.7-21 3.3t-24.5 9-21.5 7-18.2 6.3q-7.3 4.2-16.3 9.7t-20.5 17-11.8 11.7l-0.2 0.3-0.2 0.3-0.3 0.2-0.3 0.2-0.2 0.3-0.2 0.3-0.3 0.2-0.3 0.2-0.2 0.3-0.2 0.3-0.3 0.2-0.3 0.2-0.2 0.3-0.2 0.3-0.3 0.2-0.3 0.5-0.2 0.5-4 1.5q-4 1.5-8.8 7.5-4.7 6-9.7 11t-17.5 20.5-17.5 27.5-6 16-1.5 6.5l-0.5 2.5-0.5 3.5-0.5 3.5h-0.5v-228.5zm388-193q-1-1 0.2-0.7 1.3 0.2 1 1-0.2 0.7-1.2-0.3zm-26.8 14.3l0.3 0.2v2l-0.3-0.2-0.2-0.3-0.2-0.3-0.3-0.2 0.3-0.8q0.2-0.7 0.4-0.4zm176 60.2q-0.2-1 0.6-0.5 0.7 0.5 0.2 1t-0.8-0.5zm8 4.8q-0.2-0.3 0-0.6 0.3-0.2 0.3 0.3t-0.3 0.3zm37 43.7q-0.2-1.5 0.8-1.5t0.2 1.5q-0.7 1.5-1 0z"/>
   <path d="m493.5 324.2l0.5-0.2-0.2 1q-0.3 1-0.6 2l-0.2 1 1.8 0.5q1.7 0.5 2 1l0.2 0.5-5 0.2q-5 0.3-7.8 1.6l-2.7 1.2-0.3 0.2-0.2 0.3-0.2 0.3-0.3 0.2-0.3 0.2-0.2 0.3-0.2 0.3-0.3 0.2-0.3 0.2-0.2 0.3-0.2 0.3-0.3 0.2-0.5 1-0.5 1v6l0.3 0.2 0.2 0.3 0.2 0.3 0.3 0.2 0.3 0.2 0.2 0.3 16.5 7.5q16.5 7.5 23.5 12t13.2 9.8q6.3 5.2 14.3 14.7t7.5 11-0.5 5v3.5h0.5l0.8 7q0.7 7 1 8.5l0.2 1.5 0.2 1.5q0.3 1.5 0.8 4.5l0.5 3 0.3 2q0.2 2 1.2 2t3.2 16.5q2.3 16.5 3 35.3 0.8 18.7-3.4 22-4.3 3.2-9.3 11.7t-5 17.5 1 13.5 5.5 9.5 4.8 5.2l0.2 0.3 0.2 0.3 0.3 0.2 0.5 1 0.5 1 0.3 0.2 0.2 0.3 0.2 0.3 0.3 0.2 0.3 0.2 0.2 0.3 0.2 0.3 0.3 0.2 0.3 0.5 0.2 0.5v2l-2-0.2-2-0.3-0.2-0.3-0.3-0.2-0.3-0.2-0.2-0.3-0.2-0.3-0.3-0.2-0.3-0.2-0.2-0.3-1-0.3-1-0.2-0.2-0.5-0.3-0.5h-0.5v-0.2q0-0.3-1-0.6l-1-0.2-0.2-0.5-0.3-0.5-0.3-0.2q-0.2-0.3-1.4-2-1.3-1.8-26.6-27.6-25.2-25.7-35.7-33.7t-12-9.7q-1.5-1.8-3.5-2.3t-1.8-2.5q0.3-2-0.7-6t-3.7-5.2q-2.8-1.3-9-9-6.3-7.8-9.8-14.8t-10.8-13.8q-7.2-6.7-12.7-10.2t-12-4.5-10-2-9.3-12.7q-5.7-11.8-8.7-16.8t-3.5-7-2.8-3.8q-2.2-1.7-5-8.4l-2.7-6.8-0.3-0.2-0.2-0.3v-7.5l1 0.2 1 0.3 0.2 0.3 0.3 0.2 0.3 0.2 0.2 0.3 0.2 0.3 0.3 0.2 0.3 0.2 0.2 0.3 1 0.5 1 0.5 12 6q12 6 17.5 6t9.5-2.5 7.2-5.8q3.3-3.2 3.6-3.7l0.2-0.5 5-4.8q5-4.7 10.5-5.7t6.7-3.3q1.3-2.2 2.3-6.7t8-6.5 10-6.5 4.7-7.3q1.8-2.7 11.3-2.7t10-0.3z"/>
   <path d="m531 712l1 0.5 1.5 0.5 1.5 0.5 1 0.5 1 0.5 1 0.3 1 0.2v-4h1.2q1.3 0 5 2.8 3.8 2.7 7 4 3.3 1.2 3.6 2.7l0.2 1.5 0.2 2 0.3 2 0.5 3q0.5 3 1 4.5l0.5 1.5 0.3 2 0.2 2v3l-1-0.2-1-0.3-1-0.5-1-0.5-0.2-0.3-0.3-0.2-0.3-0.2-0.2-0.3-0.2-0.3q-0.3-0.2-1.8-3.2t-3.2-3.2q-1.8-0.3-29.8 11.7l-28 12-0.2 0.3-0.3 0.2-0.3 0.2-0.2 0.3-1.5 0.5-1.5 0.5-1 0.5-1 0.5v0.5l-1 0.2q-1 0.3-3.5 2-2.5 1.8-2.7 3.3-0.3 1.5-2.6 2.7-2.2 1.3-3.2 6-1 4.8-40 5.3l-39 0.5 0.2 8 0.3 8 0.3 0.2 0.2 0.3 3 0.5q3 0.5 46 0.8l43 0.2 0.8 2q0.7 2 1.2 3t0.2 4.5l-0.2 3.5-0.8 4q-0.7 4-3.7 6.5t-3.3 3.3q-0.2 0.7-7.7 1.7t-7.7 1.3q-0.3 0.2-0.6 8.2l-0.2 8h-179l0.2-1 0.3-1 0.3-0.2 0.2-0.3 0.2-0.3 0.3-0.2 0.5-1 0.5-1 0.5-1q0.5-1 18.2-32.2 17.8-31.3 26.8-48.6l9-17.2 0.5-0.2 0.5-0.3 0.2-0.3 0.3-0.2 0.5-1.5 0.5-1.5 3.7-8q3.8-8 23.8-8.2 20-0.3 23.5-1.3t5-1.5l1.5-0.5 1-0.5 1-0.5 1-0.5 1-0.5 1-0.5 1-0.5v-0.5l2.5-0.8q2.5-0.7 16.5-1.7t28.5-5 28.5-6.5 30 5 17 8z"/>
  </g>
  <path d="m683.8 798.8l0.2-0.3h129.5q129.5 0 131 0.3l1.5 0.2 78 0.2q78 0.3 120 0.6l42 0.2v29l-100.5-0.2q-100.5-0.3-204-0.6l-103.5-0.2-46.5-0.2q-46.5-0.3-47.5-5l-1-4.8 0.2-9.5q0.3-9.5 0.6-9.7z" fill="#fefefe" stroke="#fefefe"/>
  <path d="m204 360.5l1-1 1 0.3 1 0.2 0.5 1q0.5 1 2.3 1 1.7 0 4.4 4 2.8 4 5.6 4.5 2.7 0.5 4.4 2.7 1.8 2.3 5 3.6 3.3 1.2 7.3 7.2t7 17 3.7 19.8q0.8 8.7 1.6 8 0.7-0.8 1.7 1.2t1.5 8.5l0.5 6.5 0.3 0.2 0.2 0.3 0.2 0.3 0.3 0.2 0.3 0.2 0.2 0.3 0.2 0.3 0.3 0.2 0.3 0.2 0.2 0.3 0.2 0.3 0.3 0.2 0.3 0.2 0.2 0.3h1l0.2-0.3 0.3-0.2 0.5-1 0.5-1 0.5-2.5q0.5-2.5 1-0.5t1.8 0.2q1.2-1.7 2.2 0 1 1.8 4.8 1.3 3.7-0.5 4.2 0.5t1.8-1.8q1.2-2.7 2.2-3.2l1-0.5-0.2-0.3-0.3-0.2-0.3-0.2-0.2-0.3 1-0.3 1-0.2v4h2l0.2 1 0.3 1 1 4.5q1 4.5 1 14.5t1.3 12q1.2 2 2.2 2h1l0.2 1 0.3 1 0.3 0.5 0.2 0.5-1.5 0.2-1.5 0.3h-3q-2 0-12-0.7-10-0.8-10 0.2t-2.5 0.5-2.5 1-7.5 3.7q-7.5 2.3-18.5 2.8t-20.5 2-29 2.5-28-2-18.5-7.7q-10-4.8-10-5.8t-5-3.2l-5-2.3-0.2-0.3-0.3-0.2-0.3-0.2-0.2-0.3h-5l-0.2 0.3-0.3 0.2-0.3 1.5-0.2 1.5h-2l0.2 1.5 0.3 1.5 0.5 1 0.5 1 0.3 0.2 0.2 0.3 3.2 4.3q3.3 4.2 3.6 4.4l0.2 0.3 0.2 0.3 0.3 0.2 0.3 0.2 0.2 0.3 1 0.5 1 0.5 0.2 0.3 0.3 0.2 0.3 0.2 0.2 0.3 0.2 0.3 0.3 0.2 0.3 0.2 0.2 0.3 0.2 0.3 0.3 0.2 0.3 1 0.2 1-1-0.2-1-0.3-0.2-0.3-0.3-0.2-0.3-0.2-0.2-0.3-0.2-0.3-0.3-0.2-0.3-0.2-0.2-0.3-0.2-0.3-0.3-0.2-0.3-0.2-0.2-0.3-0.2-0.3-0.3-0.2-0.3-0.2-0.2-0.3-0.2-0.3-0.3-0.2-0.3-0.2-0.2-0.3-0.2-0.3q-0.3-0.2-6-4.7l-5.8-4.5-0.2-0.5q-0.3-0.5-0.6-0.5h-0.2l-0.2-0.5q-0.3-0.5-0.6-0.7l-0.2-0.3-1-0.5-1-0.5-0.2-0.3-0.3-0.2-0.3-0.2-0.2-0.3-0.2-0.3-0.3-0.2-0.3-0.2-0.2-0.3-0.2-0.3q-0.3-0.2-1.6-2.2-1.2-2-2.2-2.2-1-0.3-2.5-2.6-1.5-2.2-2.5-2.2t-1-5.5-7.5-7.3q-7.5-1.7-5.5-2.2t-1-1.5l-3-1-0.2-0.3-0.3-0.2-0.3-0.2-0.2-0.3-0.2-0.3-0.3-0.2-0.3-0.2-0.2-0.3-0.2-0.3-0.3-0.2-0.3-1-0.2-1-1-0.2-1-0.3 0.2-0.3 0.3-0.2 0.3-0.2 0.2-0.3 6-0.5 6-0.5-5.5-0.5-5.5-0.5-4.5-0.5-4.5-0.5 5.5-0.5 5.5-0.5 0.2-0.3 0.3-0.2 0.3-0.2 0.2-0.3-0.2-0.3-0.3-0.2-0.3-0.2-0.2-0.3 2-0.3 2-0.2-0.2-1-0.3-1-0.3 0.2-0.2 0.3h-3l-1.5-0.5q-1.5-0.5-2.5-1l-1-0.5-1.5-0.5-1.5-0.5-0.2-0.3-0.3-0.2-0.3-0.2-0.2-0.3h5l1-0.5 1-0.5-1.5-0.5-1.5-0.5-0.2-0.3-0.3-0.2-0.3-0.2-0.2-0.3-1-0.5-1-0.5 1-0.5 1-0.5 2-0.5q2-0.5 4.5-0.2 2.5 0.2 2.5-0.8t4-1.8q4-0.7 4.5-1.4 0.5-0.8 1.5-1 1-0.3 0.8-1.6-0.3-1.2 1.2-1.7t8.8-3.3q7.2-2.7 9.7-5.4l2.5-2.8 0.5-0.2q0.5-0.3 0.5-0.6v-0.2l1.5-0.2 1.5-0.3 0.2-0.3 0.3-0.2 0.3-0.2 0.2-0.3 0.2-0.3q0.3-0.2 3-1.4 2.8-1.3 3.6-2 0.7-0.8 4-2 3.2-1.3 7.4-5 4.3-3.8 5.6-5.6 1.2-1.7 8.2-3.7t12.5-4.3q5.5-2.2 5.5-3.2t6.5-0.2q6.5 0.7 6-0.6-0.5-1.2 11.5-0.7t13-3.5 4.5-5.8q3.5-1.7 4.5-2.7z" fill="#0075a5" stroke="#0075a5"/>
  <path d="m107.8 470.8l0.2-0.3h5l0.2 0.3 0.3 0.2 0.3 0.2 0.2 0.3 5 2.3q5 2.2 5 3.2t10 5.8q10 4.7 18.5 7.7t28 2 29-2.5 20.5-2 18.5-2.8q7.5-2.2 7.5-3.7t2.5-2.3q2.5-0.7 12.5 0.3t12 1h3l1.5-0.3 1.5-0.2 4.5 6.8q4.5 6.7 7.7 12 3.3 5.2 6 10.4 2.8 5.3 5.8 9.3t7 6 5.2 4.3q1.3 2.2 0.8 5.7t1 5 2 2.5l0.5 1 0.3 0.2 0.2 0.3 0.2 0.3 0.3 0.2 0.3 0.2 0.2 0.3 0.2 0.3 0.3 0.2 0.3 0.2 0.2 0.3 0.2 0.3 0.3 0.2 0.3 0.2 0.2 0.3 0.2 0.3 0.3 0.2 0.5 1 0.5 1h0.5v7h-0.5l-0.5-1q-0.5-1-3.2-0.8-2.8 0.3-2.3 0.8t-2.5 1.5-5 4.3l-2 3.2h-2l0.5-2.5q0.5-2.5-3-1.7-3.5 0.7-7.3 4-3.7 3.2-4 4.2-0.2 1-4.4 4.5-4.3 3.5-12.3 16.5t-8.3 14l-0.2 1v0.5l-0.2 0.3-0.3 0.2-0.5 1-0.5 1-0.5 1.5-0.5 1.5-1 20q-1 20-1 25.5v5.5l-0.5 4-0.5 4-0.3-0.2-0.2-0.3-0.2-0.3-0.3-0.2-0.5-1-0.5-1-0.3-0.2-0.2-0.3-0.2-0.3-0.3-0.2-0.5-1-0.5-1-0.5-1-0.5-1-0.5-2.5q-0.5-2.5-2.8-16.7-2.2-14.3-5.2-15.3t-8.5-1-8.5-1.3q-3-1.2-3-2.2t-1-1.2q-1-0.3-5-6.6-4-6.2-5-6.4-1-0.3-1.5-1.6-0.5-1.2-8.5-4-8-2.7-13.5-8.2t-7.5-10.2q-2-4.8-3-4.8t-1-1-1.8-2q-1.7-1-13.4-10-11.8-9-17.6-15.5-5.7-6.5-7.7-12.5l-2-6v-3l0.3-0.2 0.2-0.3 0.2-0.3q0.3-0.2 0.6-0.4 0.2-0.3 7.2-2.3l7-2 1-0.3 1-0.2 0.2-1.5 0.3-1.5v-5l-0.3-0.2-0.2-0.3-1-0.5-1-0.5-0.2-0.3-0.3-0.2-0.3-0.2-0.2-0.3-1.5-0.5q-1.5-0.5-17-5.5t-21-8.3l-5.5-3.2-0.2-0.5q-0.3-0.5-0.6-0.5h-0.2l-0.2-0.5q-0.3-0.5-0.6-0.5h-0.2l-0.2-0.5q-0.3-0.5-0.6-0.5h-0.2l-0.2-0.5q-0.3-0.5-0.6-0.5h-0.2l-0.2-0.5q-0.3-0.5-0.6-0.7l-0.2-0.3-0.2-0.3-0.3-0.2-0.3-0.2-0.2-0.3-0.2-0.3q-0.3-0.2-3.6-4.4l-3.2-4.3-0.2-0.3-0.3-0.2-0.5-1-0.5-1-0.3-1.5-0.2-1.5h2l0.2-1.5 0.3-1.5 0.3-0.2zm152.4 9.4q0.3-0.2 0.6 0 0.2 0.3-0.3 0.3t-0.3-0.3z" fill="#007aa7" stroke="#007aa7"/>
  <path d="m630.5 568.2l2.5-0.2 0.2 39q0.3 39 1 43 0.8 4 3.8 4h3v0.2q0 0.3-1 0.6-1 0.2-1 1.2t-1 1-1.2 2q-0.3 2-0.8 1t-3.5-4-4.3-3.8q-1.2-0.7-1.7 1-0.5 1.8-2.5 2-2 0.3-2.2 1-0.3 0.8-2.6 1.8-2.2 1-2 2 0.3 1 2 2.8l1.8 1.7-1 0.5-1 0.5-1 0.5-1 0.5h-2.5q-2.5 0-5.5-1.5t-6-2.5l-3-1h-4l-0.2 0.3-0.3 0.2-0.3 0.2-0.2 0.3 0.2 0.3 0.3 0.2 1 3.5q1 3.5 0.7 5.5l-0.2 2-3.5-0.2-3.5-0.3-1-0.5q-1-0.5-5.5-1.5t-6-2.7q-1.5-1.8-4.5-2.6l-3-0.7-0.2-0.3-0.3-0.2-0.3-0.2-0.2-0.3-0.2-0.3-0.3-0.2-0.3-0.2-0.2-0.3-2.5-0.3-2.5-0.2 0.2 1 0.3 1 2 2.5q2 2.5 2.5 3.5l0.5 1 0.3 1 0.2 1h-5l-0.2-1-0.3-1-0.3-0.2-0.2-0.3-0.2-0.3q-0.3-0.2-1.8-2.2t-2.8-2.2l-1.2-0.3-1 0.3-1 0.2v1q0 1-1.5 1.2-1.5 0.3-0.5 0.6 1 0.2 0.2 1.7-0.7 1.5-1 0.5-0.2-1-1.4-1.5-1.3-0.5-2 1.3-0.8 1.7-2.6 2-1.7 0.2-1.7 1.2v1l0.3 1 0.2 1h-2l-0.2-1-0.3-1v-1q0-1-1.7-1-1.8 0-2-3-0.3-3-5.6-4l-5.2-1v-1q0-1 1.5-1t1.3-2q-0.3-2-3-3l-2.8-1v-2l4-0.2 4-0.3-0.2-0.3-0.3-0.2-0.5-1-0.5-1-0.5-1-0.5-1-0.5-1q-0.5-1-1.5-3t-4-4-6.5-7.5-9.8-11.7l-6.2-6.3-0.2-0.3-0.3-0.2-0.5-1-0.5-1-0.3-0.2-0.2-0.3-0.2-0.3-0.3-0.2-0.5-1.5-0.5-1.5-0.3-1-0.2-1 1 0.2 1 0.3 0.2 0.3 0.3 0.2 0.3 0.2 0.2 0.3 0.2 0.3 0.3 0.2 0.3 0.2 0.2 0.3 0.2 0.3 0.3 0.2 0.3 0.2 0.2 0.3 0.2 0.3 0.3 0.2 0.3 0.2 0.2 0.3 1.5 1q1.5 1 2.5 1.5l1 0.5 1 0.5 1 0.5 0.2 0.3 0.3 0.2 0.5 1 0.5 1 0.3 0.2 0.2 0.3h2l-0.2-0.3-0.3-0.2-0.5-1-0.5-1-0.3-0.2-0.2-0.3-0.2-0.3-0.3-0.2-0.3-0.2-0.2-0.3-0.2-0.3-0.3-0.2-0.3-0.2-0.2-0.3-0.2-0.3-0.3-0.2-0.5-1q-0.5-1-1.5-2t-3-4.5-0.7-3q1.2 0.5 0.4-3-0.7-3.5 0.8-4.5t2.2-1.5q0.8-0.5 0.6-2-0.3-1.5 2.7-4t4.3-3.7q1.2-1.3 1.2-2.6v-1.2l5.5-1.2q5.5-1.3 15.5-1.8l10-0.5 1-0.5 1-0.5 2.5-0.5q2.5-0.5 1-2l-1.5-1.5v-0.5l2.2 1q2.3 1 2.6 1.2l0.2 0.3 0.2 0.3 0.3 0.2 0.3 0.2 0.2 0.3 0.2 0.3 0.3 0.2 0.3 0.2 0.2 0.3 2 0.3 2 0.2v-2l4-0.2 4-0.3 0.2-0.3 0.3-0.2h0.5l2-0.2 2-0.3 26-3q26-3 28.5-3.3z" fill="#007eaf" stroke="#007eaf"/>
  <path d="m368.2 371.5l0.8 0.5v0.5l0.2 0.3 0.3 0.2 2.7 6.8q2.8 6.7 5 8.4 2.3 1.8 2.8 3.8t3.5 7 8.7 16.8q5.8 11.7 9.3 12.7t10 2 12 4.5 12.7 10.2q7.3 6.8 10.8 13.8t9.8 14.8q6.2 7.7 9 9 2.7 1.2 3.7 5.2t0.7 6q-0.2 2 1.8 2.5t3.5 2.3q1.5 1.7 12 9.7t35.7 33.7q25.3 25.8 26.6 27.6 1.2 1.7 1.4 2l0.3 0.2 0.3 0.5 0.2 0.5v0.5l1 0.3 1 0.2v0.5l0.5 0.3 0.5 0.2v2l-2.5 0.2-2.5 0.3-1 0.5-1 0.5-10 0.5q-10 0.5-15.5 1.8l-5.5 1.2h-0.2q-0.3 0-4.6 2.2-4.2 2.3-9.2 2.8t-15.5-3.5-14.5-4.5-5.2 0.2q-1.3 0.8-1.6 4.3-0.2 3.5-4.2 3l-4-0.5-5.5-0.2q-5.5-0.3-12.5-4.8t-14.5-5-8.5 0.5-7 1-14-3-14-3.5-8.5 0.5-3.3 2.7q-0.7 1.8-2.4 3-1.8 1.3-7.3 1.8t-11-1l-5.5-1.5-1-0.5-1-0.5-0.2-0.3-0.3-0.2-0.5-1-0.5-1-0.3-0.2-0.2-0.3-0.2-0.3-0.3-0.2-0.5-1-0.5-1-0.3-0.2-0.2-0.3 3.5 0.5q3.5 0.5 7 0.8l3.5 0.2v-2l-3.5-0.2-3.5-0.3-0.2-0.3-0.3-0.2-0.3-0.2q-0.2-0.3-0.7-4.3t-3-4.3l-2.5-0.2-1-0.2q-1-0.3-1.5-1.6l-0.5-1.2v-7l0.2-2.5 0.3-2.5 0.3-0.2 0.2-0.3 0.2-0.3 0.3-0.2 0.5-1q0.5-1 2.5-6t1.7-21l-0.2-16h0.5l0.5 1 0.5 1 0.3-0.2 0.2-0.3 0.2-0.3 0.3-0.2 0.5-2 0.5-2 0.5-1.5q0.5-1.5 2.5-20t1-32-2.5-24l-1.5-10.5h-0.5l0.2-1q0.3-1 0.8-4t2.5-6 5.5-2.5 6.5 0 4.5-4.5 2.5-11.5 1.7-7z" fill="#026a95" stroke="#026a95"/>
  <path d="m191.5 783l1.5 0.5 0.2 0.3 0.3 0.2 0.3 0.2 0.2 0.3 1 0.3 1 0.2 0.2 1.5 0.3 1.5v5l-0.5 1-0.5 1-2.7 1.5q-2.8 1.5-2.8 2.5t-19 9.8q-19 8.7-28.8 12-9.7 3.2-33.4 10.4-23.8 7.3-25.3 7.8l-1.5 0.5-0.2 0.3-0.3 0.2-0.3 0.2-0.2 0.3-1.5 0.5-1.5 0.5-1 0.5-1 0.5 1 0.5 1 0.5v0.5h-78v-43h0.5l0.3 0.2 0.2 0.3h2l1.5-0.5 1.5-0.5 28-15q28-15 33.8-16.7 5.7-1.8 7.4-2 1.8-0.3 2.3-2.6 0.5-2.2 7.5-3.2t8.2-3.5q1.3-2.5 8.8 0t8.8 4.5q1.2 2 2.2 2t2.5 3.2q1.5 3.3 3.5 4.3t6.5 1.3q4.5 0.2 4.5 1.2t4.8 1.5q4.7 0.5 6.4 1.3 1.8 0.7 2.3 1.4 0.5 0.8 2 0.8t1.5 1 7 0.2q7-0.7 11.5-0.7t13 1 10 1.5 3 1z" fill="#004a7b" stroke="#004a7b"/>
  <path d="m344.2 567.8l0.3 0.2 0.3 0.2 0.2 0.3 3.5 0.3 3.5 0.2v2l-3.5-0.2q-3.5-0.3-7-0.8l-3.5-0.5 0.2 0.3 0.3 0.2 0.5 1 0.5 1 0.3 0.2 0.2 0.3 0.2 0.3 0.3 0.2 0.5 1 0.5 1 0.3 0.2 0.2 0.3 1 0.5 1 0.5 5.5 1.5q5.5 1.5 11 1t7.3-1.8q1.7-1.2 2.4-3 0.8-1.7 3.3-2.7t8.5-0.5 14 3.5 14 3 7-1 8.5-0.5 14.5 5 12.5 4.8l5.5 0.2v0.5l2 0.3 2 0.2v2l1 0.2 1 0.3-1.2 0.7q-1.3 0.8-4.3 14.3t-5 17.5-3.3 8.2q-1.2 4.3 0 5 1.3 0.8 1.8 3.8t-3.8 11.2q-4.2 8.3-10.7 17.8t-12.5 15.5-10 9-9.8 7.3q-5.7 4.2-6 4.4l-0.2 0.3-0.2 0.3-0.3 0.2-0.3 1-0.2 1h-2l-0.2 1-0.3 1-0.3 1-0.2 1 1 0.2 1 0.3 1 0.5 1 0.5 4.5 0.3 4.5 0.2v0.5l-1 0.5-1 0.5-1 0.5-1 0.5-1 0.5-1 0.5-1.5 0.5q-1.5 0.5-5 1.5t-23.5 1.3q-20 0.2-23.8 8.2l-3.7 8-0.5 1.5-0.5 1.5-0.3 0.2-0.2 0.3-0.5 0.3-0.5 0.2v-0.5h-2l-0.2 0.3-0.3 0.2v-4q0-4 1-9.5l1-5.5-0.3-0.2-0.2-0.3-4.5-0.3-4.5-0.2 0.2-0.5 0.3-0.5 0.3-0.2 0.2-0.3 1.5-0.5 1.5-0.5-0.2-0.3-0.3-0.2-0.3-0.2-0.2-0.3-1-0.5-1-0.5-0.2-0.3-0.3-0.2-0.3-0.2-0.2-0.3-0.2-0.3-0.3-0.2-0.3-0.2-0.2-0.3-1-0.5-1-0.5-6-0.5q-6-0.5-9-2l-3-1.5-0.2-0.3-0.3-0.2-0.3-0.2-0.2-0.3-0.2-0.3-0.3-0.2-0.3-0.2-0.2-0.3-0.2-0.3-0.3-0.2-0.3-1-0.2-1 1.5 0.2 1.5 0.3h1l0.2-0.3 0.3-0.2v-6l-0.3-0.2-0.2-0.3-0.2-0.3-0.3-0.2-0.5-1q-0.5-1-1-2t-4-11.5-8.5-27.5-5.5-23.5 2.5-15 6.5-12.5 6.2-5.5q2.8-1.5 6.6-7.5 3.7-6 10-12.8 6.2-6.7 10.2-13l4-6.2 2.5 0.2q2.5 0.3 3 4.3t0.7 4.3z" fill="#006b94" stroke="#006b94"/>
  <path d="m585.5 405.8l11.5 0.2 14.5 0.2q14.5 0.3 17.5 2.8t5.2 2.2q2.3-0.2 3.6-2 1.2-1.7 3-2.4 1.7-0.8 2-1l0.2-0.3 1-0.3 1-0.2 0.2 1.5 0.3 1.5h0.5l1.2 27q1.3 27 1.3 42.5t0.3 16l0.2 0.5v0.2q0 0.3 0.5 0.6l0.5 0.2-0.2 1.5-0.3 1.5-0.3 0.2-0.2 0.3 0.2 0.3 0.3 0.2 0.3 2q0.2 2-3.8 2.2l-4 0.3 0.2 0.3 0.3 0.2 0.3 0.2 0.2 0.3 0.2 0.3 0.3 0.2 2 3q2 3 1.5 12.5t-7 28.5-6.8 19h-0.2l-2.5 0.2q-2.5 0.3-28.5 3.3l-26 3-2 0.3-2 0.2 0.2-0.5 0.3-0.5 0.5-2 0.5-2 0.5-2q0.5-2 2.5-8t3.3-11q1.2-5 2.2-5t1.8-3.5l0.7-3.5 0.3-0.2 0.2-0.3 0.2-0.3 0.3-0.2 0.5-1 0.5-1 0.3-0.2 0.2-0.3 2-0.3 2-0.2 0.2-1 0.3-1 0.3 8 0.2 8 1 0.2 1 0.3 0.2 0.3 0.3 0.2 0.3 0.2 0.2 0.3 0.2 0.3 0.3 0.2 0.3 0.2 0.2 0.3 0.2 0.3 0.3 0.2 0.3 0.2 0.2 0.3h3l0.2-0.3 0.3-0.2v-4l-0.3-0.2-0.2-0.3 0.2-0.3 0.3-0.2v-1q0-1-0.3-9.5l-0.2-8.5 1.5 0.2 1.5 0.3 0.2 0.3 0.3 0.2 0.3 0.2 0.2 0.3 1 0.5 1 0.5 2.5 2q2.5 2 2.7 2.3l0.3 0.2 0.3 0.2 0.2 0.3 0.2 0.3 0.3 0.2 0.3 0.2 0.2 0.3 0.2 0.3 0.3 0.2 0.3 0.2 0.2 0.3 2 0.5 2 0.5 0.2 0.3 0.3 0.2v-2l-0.3-0.2-0.2-0.3-0.2-0.3-0.3-0.2-0.3-0.2-0.2-0.3-0.2-0.3-0.3-0.2-0.3-0.2-0.2-0.3-0.2-0.3-0.3-0.2-0.3-0.2-0.2-0.3-0.2-0.3-0.3-0.2-0.3-0.2-0.2-0.3-0.2-0.3-0.3-0.2-0.3-0.2-0.2-0.3-0.2-0.3q-0.3-0.2-1.3-1.2t-10.3-6.2q-9.2-5.3-15.7-9.8t-6.5-10-1.2-16.2q-1.3-10.8-3.8-21.3t-5.5-19.5-7.7-14l-4.8-5-0.2-1.5q-0.3-1.5-1-8.5l-0.8-7 0.2-1.5 0.3-1.5 0.3-0.2 0.2-0.3h9.5q9.5 0 21 0.3z" fill="#0476a4" stroke="#0476a4"/>
  <path d="m725 751.2l17-0.2 34 2.2q34 2.3 60.5 2.8t28 1.5 7.5 2 22.2 0.7q16.3-0.2 16.6-0.7l0.2-0.5 1 2.5q1 2.5 2 2.5t1 2 9.5 5.2q9.5 3.3 9.7 3.6 0.3 0.2 0.8 1.2l0.5 1 0.5 1 0.5 1 0.3 0.2 0.2 0.3 0.2 0.3 0.3 0.2 0.3 0.5 0.2 0.5-40.5-0.2q-40.5-0.3-127-0.8t-87.5-1.5-11-1.3q-10-0.2-10.2 0.8-0.3 1-43 1.5l-42.8 0.5h-25v-0.5l3.5-0.5 3.5-0.5 0.2-0.3 0.3-0.2 1.7-3.8q1.8-3.7 8.3-4.7t11.5-1h5l0.2-0.3 0.3-0.2 0.3-1 0.2-1-5.5-0.2-5.5-0.3-0.2-0.3-0.3-0.2-0.3-0.2-0.2-0.3h6q3 0 5.5-0.5l2.5-0.5 0.2-0.3 0.3-0.2v-3l-0.3-0.2-0.2-0.3-0.2-0.3-0.3-0.2-0.3-1-0.2-1-1-0.2-1-0.3-0.2-0.3-0.3-0.2v-2h6.5l1 2.8q1 2.7 11.5 2.2t13-2 2.5-2.5 27-0.5 34.5 0.5 8.5-1 10-1.5 26-0.8z" fill="#cfd6d0" stroke="#cfd6d0"/>
  <path d="m140.8 578.8l0.2-0.3h3l1 0.5 1 0.5 0.2 0.3 0.3 0.2 0.3 0.2 0.2 0.3 0.2 0.3 0.3 0.2 0.3 0.2 0.2 0.3 0.2 0.3 0.3 0.2 0.3 0.2 0.2 0.3 0.2 0.3 0.3 0.2v5l-0.3 0.2-0.2 0.3-3.2 3.3q-3.3 3.2-3.8 4.7t-0.8 1.7l-0.2 0.3-0.2 0.3-0.3 0.2-0.5 1-0.5 1v2l0.3 0.2 0.2 0.3-0.2 0.3-0.3 0.2-0.3 0.2-0.2 0.3 0.2 0.3 0.3 0.2 0.3 0.2 0.2 0.3h1l2.5-0.3 2.5-0.2v0.5l-0.2 0.3-0.3 0.2-0.3 0.2-0.2 0.3-1 0.5-1 0.5-1 0.3q-1 0.2-1 1.2t-6.8 6q-6.7 5-12.2 21t-5 27.5 1.8 13.5q1.2 2 5.7 2.8 4.5 0.7 7.5 0.4l3-0.2v0.5l-0.2 0.3-0.3 0.2-0.3 0.2-0.2 0.3-0.2 0.3-0.3 0.2-1.7 1.5q-1.8 1.5-1.8 2.5t-1.2 1.5q-1.3 0.5-1.6 2-0.2 1.5 2 2 2.3 0.5 1.8 3t-5.2 9.3q-4.8 6.7-23.3 20.7t-30.7 20.7q-12.3 6.8-38 22.6-25.8 15.7-26.8 16.2l-1 0.5-1 0.5-1 0.5-1 0.5-1 0.5h-1l-0.2-0.3-0.3-0.2h-0.5v-68l0.5-0.2 0.5-0.3 1-0.5 1-0.5 0.2-0.3 0.3-0.2 0.3-0.2 0.2-0.3 0.2-0.3 0.3-0.2 0.3-0.2 0.2-0.3 0.2-0.3 0.3-0.2 0.3-0.2 0.2-0.3 0.2-0.3 0.3-0.2 0.3-0.2q0.2-0.3 18.2-18l18-17.8 0.5-0.2q0.5-0.3 0.5-0.6v-0.2l0.5-0.2 0.5-0.3 0.2-0.3 0.3-0.2 0.3-0.2 0.2-0.3 0.2-0.3 0.3-0.2 0.3-0.2 0.2-0.3 0.2-0.3 0.3-0.2 0.3-0.2 0.2-0.3 0.2-0.3q0.3-0.2 9.3-9.2t12.7-12.5q3.8-3.5 16.8-19l13-15.5 0.5-0.2q0.5-0.3 0.5-0.6v-0.2l0.5-0.2q0.5-0.3 0.5-0.6v-0.2l0.5-0.2q0.5-0.3 0.5-0.6v-0.2l0.5-0.2q0.5-0.3 0.5-0.6v-0.2l0.5-0.2q0.5-0.3 0.5-0.6v-0.2l0.5-0.2q0.5-0.3 0.5-0.6v-0.2l0.5-0.2q0.5-0.3 1.5-1.3t2.5-1.5 15-13.5l13.5-13 0.2-0.3 0.3-0.2 0.3-0.2 0.2-0.3 0.2-0.3 0.3-0.2 0.3-0.2z" fill="#004a79" stroke="#004a79"/>
  <path d="m710 724.2v-0.2l48.5 0.2q48.5 0.3 67 0.3h18.5l0.2 0.3 0.3 0.2 0.3 8 0.2 8v2l-7 0.2q-7 0.3-29 1.6-22 1.2-22 0.2t-12-0.8q-12 0.3-21.5 1.3l-9.5 1v0.5h-1q-1 0-1-1t-42.5-1h-42.5v-18l8.5-0.2q8.5-0.3 24.5-0.8l16-0.5 2-0.5 2-0.5v-0.3z" fill="#464040" stroke="#464040"/>
  <path d="m486.8 800l-0.8-2h175v0.5l0.5 0.3 0.5 0.2-0.2 12.5q-0.3 12.5-0.6 14.5l-0.2 2-66.5-0.2q-66.5-0.3-68.5-0.6l-2-0.2-6.5-0.2q-6.5-0.3-8.5-0.8t-2.2-1.2q-0.3-0.8-2.6-1.6-2.2-0.7-2.7-3-0.5-2.2-2.5-2.7t-2-3-4-3-4.2 0.5l-0.3 1-0.3-1-0.2-1 0.2-3.5q0.3-3.5-0.2-4.5t-1.2-3z" fill="#fdfdfd" stroke="#fdfdfd"/>
  <path d="m261 249.8v0.2l3.5 6.8q3.5 6.7 20.3 37 16.7 30.2 24.2 42.7t8 13.5l0.5 1 0.3 0.5 0.2 0.5v0.2q0 0.3 0.5 0.6l0.5 0.2 0.8 2.5q0.7 2.5 0.4 4l-0.2 1.5v0.2q0 0.3 0.5 0.6l0.5 0.2-0.2 2-0.3 2-0.3-0.2-0.2-0.3-0.2-0.3-0.3-0.2-0.3 0.2-0.2 0.3h-1l-0.2-0.3-0.3-0.2-0.5-1-0.5-1-0.3 0.2-0.2 0.3-0.2 0.3-0.3 0.2-0.5 0.5q-0.5 0.5-0.8 1l-0.2 0.5h-0.2q-0.3 0-0.6 0.5l-0.2 0.5-3-0.2q-3-0.3-3.2-0.6-0.3-0.2-2-0.4-1.8-0.3-3.6-2.6-1.7-2.2-2.7-0.7t-1.5 0.5-1.2-0.2q-0.8 0.7-3.3 1-2.5 0.2-2.7 1.2l-0.3 1-0.5-3q-0.5-3-2.5-5.5t-0.7-5.5l1.2-3-2 0.2q-2 0.3-3.5 0.3t-32.5-3.3l-31-3.2-0.2-1q-0.3-1 0-19l0.2-18-0.2-2q-0.3-2-1-2.8-0.8-0.7-1.6-4.4-0.7-3.8-2.4-4.6-1.8-0.7-1.3-1.4l0.5-0.8h5l-0.2-6q-0.3-6 16.2-21t16.8-16q0.2-1 3-1 2.7 0 3 1 0.2 1 2.7 2.2 2.5 1.3 2.5 1.6zm42.2 113.4q0.3-0.2 0.6 0 0.2 0.3-0.3 0.3t-0.3-0.3z" fill="#0c7da7" stroke="#0c7da7"/>
  <path d="m506.8 88.5l0.2 0.5 0.2 2q0.3 2-1.2 3t-3.2 1.8q-1.8 0.7-2.6 2.4-0.7 1.8-2.4 1.3l-1.8-0.5 2 5.8q2 5.7 3.5 8.2t2.5 2.8q1 0.2 1 1.2t1.2 1.5q1.3 0.5 1.6 1.7 0.2 1.3 0.4 1.6l0.3 0.2 0.3 0.2 0.2 0.3 0.2 0.3 0.3 0.2 0.3-0.2 0.2-0.3 0.2-0.3 0.3-0.2 0.3 0.2 0.2 0.3 1.5 0.5 1.5 0.5 0.2 0.3 0.3 0.2 0.3 0.2 0.2 0.3-5.5 0.5-5.5 0.5 2.8 0.7q2.7 0.8 3 1.6 0.2 0.7 1.4 1.4 1.3 0.8 1.6 2.3 0.2 1.5-0.8 1.5t-1.2-1l-0.3-1v5l-0.3 1-0.2 1h-1q-1 0-1 1v1l-1 0.2q-1 0.3-4 0.3h-3l0.2 0.3 0.3 0.2 0.3 0.2 0.2 0.3 0.2 0.3 0.3 0.2v1l-0.3 0.2-0.2 0.3 0.2 0.3 0.3 0.2 2.5 3.5q2.5 3.5 3 2t2.5 3.5 2.3 6l0.2 1h2v2l-1 0.2q-1 0.3-4.5 2.8t-5.5 2.2l-2-0.2 0.2 1 0.3 1 0.3 0.2 0.2 0.3 0.2 0.3 0.3 0.2 2 2q2 2 2.5 3.5l0.5 1.5 0.3 0.2 0.2 0.3 0.2 0.3 0.3 0.2 0.3 1 0.2 1h-2v-2l-1.5-0.2-1.5-0.3-0.2-0.3-0.3-0.2-0.3 0.2-0.2 0.3h-2l-0.2-0.3q-0.3-0.2-2-0.4-1.8-0.3-2.3-1.6-0.5-1.2-1.5-1.2t-1.2 1q-0.3 1-1.8-2.5t-11.8-3q-10.2 0.5-10.2-0.5t-1.5-1.8q-1.5-0.7-7-1l-5.5-0.2-1 2.2q-1 2.3-3.5 4.8t-0.3 3.2q2.3 0.8 1.3 1.8t-0.7 1.2l0.2 0.3-1 0.5q-1 0.5-2 0.8l-1 0.2-1 0.2q-1 0.3-1.8 1.6-0.7 1.2-0.4 2 0.2 0.7-18.3 2.2t-22 3.5-2.5 2.3q1 0.2 1 1.2t-1 1-4 3.2q-3 3.3-2.8 4.6 0.3 1.2-2 4-2.2 2.7-11.7 6.2l-9.5 3.5h-2l-1.5-0.5-1.5-0.5 0.2-0.3 0.3-0.2v-1l-0.3-0.2-0.2-0.3v-1l0.2-0.3q0.3-0.2 0.3-3.7t0.7-7q0.8-3.5-0.2-3.7-1-0.3-1-2.6v-2.7l0.2-0.3 0.3-0.2 0.3-0.2 0.2-0.3 0.2-0.3 0.3-0.2 0.5 1 0.5 1 0.5-1 0.5-1v-1l-0.3-0.2-0.2-0.3-0.2-0.3-0.3-0.2-0.3-0.2-0.2-0.3-0.5-1.3q-0.5-1.2 0.7-2.2 1.3-1 2.6-3.2 1.2-2.3 4-3.6 2.7-1.2 5-3.4 2.2-2.3 3.4-3 1.3-0.8 1.3-3.8t0.7-6q0.8-3 3-2.5 2.3 0.5 2.6-0.5 0.2-1 1.2-1t0.8-1.5l-0.3-1.5-0.3-0.2-0.2-0.3 0.2-0.3 0.3-0.2v-1q0-1-1-3t-1.5-0.5-1.5-0.5l-1-2v-1l-0.3-2.5-0.2-2.5 4-0.2q4-0.3 8-0.8t4.8-1.2q0.7-0.8 0.4-1.8-0.2-1 1.3-0.8 1.5 0.3 3.5 0.6l2 0.2-0.2-3q-0.3-3-3.6-14-3.2-11-4.2-11t-1-1 1-1 1.2-1q0.3-1 0.3-5t0.7-4.5q0.8-0.5-1.4-5.5-2.3-5-3.8-10.5t-2.2-6q-0.8-0.5-1-2l-0.3-1.5-0.3-0.2-0.2-0.3-0.2-0.3-0.3-0.2v-2l0.3 0.2 0.2 0.3 2.5-0.5q2.5-0.5 3.3 0.2 0.7 0.8 1 1l0.2 0.3 0.2 0.3 0.3 0.2 0.3 0.2 0.2 0.3 0.2 0.3 0.3 0.2v-3l-0.5-2q-0.5-2-1-4l-0.5-2-0.5-1-0.5-1-0.3-0.2-0.2-0.3-1-0.5-1-0.5h5l0.2 0.3 0.3 0.2 0.3 0.2 0.2 0.3 0.2 0.3 0.3 0.2 1 1.5q1 1.5 1.3 1.7l0.2 0.3 0.2 0.3 0.3 0.2 0.5 1.5 0.5 1.5-0.3-3q-0.2-3 0.8-2.8 1 0.3 1.2 0.6l0.3 0.2 0.3-0.2 0.2-0.3h3l1 0.3 1 0.2 0.2-1 0.3-1 0.3-1 0.2-1h-1q-1 0-0.2-2 0.7-2-2-3.5l-2.8-1.5v-2l2.5-0.2 2.5-0.3 3-1q3-1 3-1.3v-0.2l1.2 0.5q1.3 0.5 1.8-0.5t1.8 0.8q1.2 1.7 12 4 10.7 2.2 13 3.4 2.2 1.3 13.2 7.8t12.8 7.2q1.7 0.8 3 2 1.2 1.3 3.4 2.6 2.3 1.2 4 3.4 1.8 2.3 9 7.6 7.3 5.2 7.6 5.7z" fill="#271612" stroke="#271612"/>
  <path d="m447 181.2l1-0.2v0.5l0.2 0.3 0.3 0.2h2.7q2.8 0 2.8 1t-1.2 2q-1.3 1-1 2 0.2 1 1.2 1t-1 2.8q-2 2.7-3.8 4-1.7 1.2-0.7 6.2t0.7 7q-0.2 2 0.6 2.5 0.7 0.5 1.2 3t5.2 5q4.8 2.5 4.8 3.5t7 4.2q7 3.3 10.5 6.3t4 5.5 2 2.8q1.5 0.2 1.5 1.2t2.8 2.5q2.7 1.5 4 2.7 1.2 1.3 3.4 2 2.3 0.8 2.8 4.3l0.5 3.5 0.3-0.2 0.2-0.3 1.5-0.3 1.5-0.2 0.5-1.2q0.5-1.3 1.5-1.6 1-0.2 1-1.2t3-0.8q3 0.3 4.5 0.3h1.5l-0.2 0.3-0.3 0.2-0.3 1-0.2 1 1 0.2 1 0.3 0.2 0.3 0.3 0.2 0.3 0.2 0.2 0.3 0.2 0.3 0.3 0.2 0.5 1 0.5 1 0.3 0.2 0.2 0.3 0.2 0.3 0.3 0.2v4l-0.3 0.2-0.2 0.3-0.2 0.3-0.3 0.2-0.3 0.2-0.2 0.3-0.2 0.3-0.3 0.2-0.3 0.2-0.2 0.3v0.5l-4.8 0.5q-4.7 0.5-6.2 2.5t-2.8 5.8q-1.2 3.7-2.7 4.4-1.5 0.8-2.3 20.8-0.7 20-1.7 22t-1.3 2h-0.2l-0.5 0.2q-0.5 0.3-10 0.3t-11.3 2.7q-1.7 2.8-4.7 7.3t-10 6.5-8 6.5-2.3 6.7q-1.2 2.3-6.7 3.3t-10.5 5.7l-5 4.8 0.2-1 0.3-1 0.3-0.2q0.2-0.3-2.8 0.7t-6 2.5-10 1.8q-7 0.2-7-1.3t-3-2.3q-3-0.7-3.8-2.4-0.7-1.8-4.2-5.3t-3.5-6-1.3-3q-1.2-0.5-1.4 1-0.3 1.5-1.6-0.3-1.2-1.7-1.7-1-0.5 0.8-3.5 1-3 0.3-4-1.4-1-1.8-2.5-1.8t-1.5-1-2.2-3q-2.3-2-2-3.5 0.2-1.5-0.8-1.7-1-0.3-1.5-1.6-0.5-1.2-2-1.2t-1.5-1 1-1.2q1-0.3-0.5-0.8t-2-1.8q-0.5-1.2-2-1.4-1.5-0.3-1.7-1.6-0.3-1.2-1.3-1.2t-7.5-4.5-9.2-6q-2.8-1.5-3-3-0.3-1.5-2.6-2.3-2.2-0.7-3.2-2.2l-1-1.5h-5l-0.2 0.3-0.3 0.2-0.5 2.5-0.5 2.5-0.5 1.5-0.5 1.5h-0.5l0.2-5 0.3-5 0.5-1 0.5-1 0.3-0.2 0.2-0.3 0.2-0.3q0.3-0.2 3-1.2 2.8-1 2.8 0t6.5 0.8q6.5-0.3 7-2.6 0.5-2.2 3-3.2t2.5-2 2.5-1.8q2.5-0.7 1-1-1.5-0.2 1.3-3.7 2.7-3.5 4.2-5t-0.8-1.7q-2.2-0.3-1-3.6 1.3-3.2 4-4.2 2.8-1 3-2 0.3-1 2.6-1.8 2.2-0.7 1.7-3.4-0.5-2.8 1-3 1.5-0.3 0-0.8t0.5-1.2q2-0.8 2.2-2.3 0.3-1.5 1.6-1 1.2 0.5 1.2-0.5t-1-1.2q-1-0.3 0.5-3 1.5-2.8 0.5-2.8t-0.2-3q0.7-3 2-4.8 1.2-1.7 2-2.4 0.7-0.8-0.8-1.3t-2.2-3.5q-0.8-3-1.8-3t0-4.5 2-4.7q1-0.3 1.8-2l0.7-1.8 0.3-1 0.2-1-2-0.2q-2-0.3-3.5-0.8l-1.5-0.5-0.2-0.3-0.3-0.2v-2l0.3-0.2 0.2-0.3 0.5-0.3 0.5-0.2v0.5l0.2 0.3 0.3 0.2v1l-0.3 0.2-0.2 0.3 1.5 0.5 1.5 0.5h2l9.5-3.5q9.5-3.5 11.7-6.2 2.3-2.8 2-4-0.2-1.3 2.6-3.6 2.7-2.2 3-4.7 0.2-2.5 3.7-4.3 3.5-1.7 22-3.2t18.3-2.2q-0.3-0.8 0.4-2 0.8-1.3 1.8-1.6zm-21.2 178.6l0.2-0.3 1.5-0.3 1.5-0.2-0.2 1-0.3 1-0.3 1-0.2 1-2 0.2q-2 0.3-3.2 1-1.3 0.8-1.3-1.2v-2l0.3-0.2 0.2-0.3h2l0.2 0.3 0.3 0.2 0.3-0.2 0.2-0.3 0.2-0.3 0.3-0.2 0.3-0.2z" fill="#a66248" stroke="#a66248"/>
  <path d="m423.8 43.5l0.2 0.5v0.2q0 0.3-3 1.3l-3 1-2.5 0.3-2.5 0.2v2l2.8 1.5q2.7 1.5 2.7 3.5t0 3v1l-0.3 1-0.2 1-1-0.2-1-0.3h-3l-0.2 0.3-0.3 0.2-0.3-0.2q-0.2-0.3-1.2-0.6-1-0.2-0.8 2.8l0.3 3-0.5-1.5-0.5-1.5-0.3-0.2-0.2-0.3-0.2-0.3q-0.3-0.2-1.3-1.7l-1-1.5-0.3-0.2-0.2-0.3-0.2-0.3-0.3-0.2-0.3-0.2-0.2-0.3h-5l1 0.5 1 0.5 0.2 0.3 0.3 0.2 0.5 1 0.5 1 0.5 2q0.5 2 1 4l0.5 2v3l-0.3-0.2-0.2-0.3-0.2-0.3-0.3-0.2-0.3-0.2-0.2-0.3-0.2-0.3q-0.3-0.2-1-1-0.8-0.7-3.3-0.2l-2.5 0.5-0.2-0.3-0.3-0.2v2l0.3 0.2 0.2 0.3 0.2 0.3 0.3 0.2 0.3 1.5q0.2 1.5 1 2 0.7 0.5 2.2 6t2.8 8.3q1.2 2.7 2.7 3 1.5 0.2 1.3 1.7-0.3 1.5-1.3 2.5t-0.5 10.5 3 17 2.8 10.5l0.2 3-2-0.2q-2-0.3-3.5-0.6-1.5-0.2-1.3 0.8 0.3 1-0.4 1.8-0.8 0.7-4.8 1.2t-8 0.8l-4 0.2 0.2 2.5 0.3 2.5v1l1 2q1 2 1.5 0.5t1.5 0.5 1 3v1l-0.3 0.2-0.2 0.3 0.2 0.3 0.3 0.2 0.3 1.5q0.2 1.5-0.8 1.5t-1.2 1q-0.3 1-2.6 0.5-2.2-0.5-3 2.5-0.7 3-0.7 6t-1.3 3.8q-1.2 0.7-3.4 3-2.3 2.2-5 3.4-2.8 1.3-4 3.6-1.3 2.2-2.6 3.2-1.2 1-0.7 2.2l0.5 1.3 0.2 0.3 0.3 0.2 0.3 0.2 0.2 0.3 0.2 0.3 0.3 0.2v1l-0.5 1-0.5 1-0.5-1-0.5-1-0.3 0.2-0.2 0.3-0.2 0.3-0.3 0.2-0.3 0.2-0.2 0.3v0.5h-0.5l-0.5-3q-0.5-3-1-4t-1.2-1.8q-0.8-0.7-1.6-3-0.7-2.2-6.4-10.7l-5.8-8.5-0.2-0.5q-0.3-0.5-0.6-0.5h-0.2l-0.2-0.5q-0.3-0.5-0.6-0.5h-0.2l-0.2-0.5q-0.3-0.5-0.6-0.5h-0.2l-0.2-0.5q-0.3-0.5-0.6-0.5h-0.2l-0.2-0.5q-0.3-0.5-0.6-0.7-0.2-0.3-3.7-1.6-3.5-1.2-3.7-2.7-0.3-1.5-2-2.3-1.8-0.7-2.3-2.4-0.5-1.8 1.5-2.6 2-0.7 1.2-3-0.7-2.2-2.4-3.2-1.8-1-2.3-2.8l-0.5-1.7-1-0.5-1-0.5-2-0.3q-2-0.2-2 0.8t-1.5 1-1.7-1q-0.3-1-2-0.2-1.8 0.7-1.3 2 0.5 1.2-0.5 1l-1-0.3-1-0.3-1-0.2 0.2-1q0.3-1-2.7-3t-1.7-2.5q1.2-0.5 2-2.5l0.7-2-0.3-0.2-0.2-0.3-1-0.5-1-0.5-1-0.5q-1-0.5-5.5-1l-4.5-0.5v-0.5h0.5v-1l-0.3-0.2-0.2-0.3-0.2-0.3-0.3-0.2-0.3-0.2-0.2-0.3 0.2-0.3 0.3-0.2 0.3-0.2 0.2-0.3 0.2-0.3 0.3-0.2 1.3-0.5q1.2-0.5 2-2.5 0.7-2 2-1.5 1.2 0.5 0.7-4.5t0.5-5 1.2 1q0.3 1 0.3-2v-3l-0.3-1-0.2-1h2l0.5 2.5q0.5 2.5 1.5 2.7l1 0.3h2l-0.2-0.3-0.3-0.2-0.3-1-0.2-1 1.5-0.2 1.5-0.3-0.2-0.3q-0.3-0.2 0.2-6.7l0.5-6.5 0.5-1.5 0.5-1.5 0.3-1 0.2-1h2l-0.2 1-0.3 1v3l0.3 0.2 0.2 0.3 0.2 0.3 0.3 0.2 0.3-0.2 0.2-0.3 0.2-0.3 0.3-0.2 0.3-0.2 0.2-0.3 0.2-0.3 0.3-0.2 0.7-3q0.8-3 1.8-3t1.5 0.8q0.5 0.7 1.3-0.6 0.7-1.2 2-5 1.2-3.7 3.2-5 2-1.2 2.5-3.2t11.5-5.5 11-4.5 1.2-0.5q1.3 0.5 1.8-0.5l0.5-1 0.3-0.2 0.2-0.3 1.5-0.3 1.5-0.2v-5l-1-0.2-1-0.3-1-0.3-1-0.2-0.2 1q-0.3 1-0.3 1.5v2.5l-0.3-0.2-0.2-0.3-0.2-0.3-0.3-0.2v-4l0.3-0.2 0.2-0.3 0.2-0.3 0.3-0.2 0.5-1 0.5-1 0.3-0.2 0.2-0.3 0.2-0.3 0.3-0.2 0.3-0.2 0.2-0.3 1.5-0.5q1.5-0.5 1.7-0.8l0.3-0.2 0.3-0.2 0.2-0.3 0.2-0.3 0.3-0.2 0.3-0.2 0.2-0.3 0.2-0.3 0.3-0.2 1 1.5q1 1.5 1-0.5t0.3-2.2l0.2-0.3 0.2-0.3 0.3-0.2 0.3-1 0.2-1h2l-0.2 1-0.3 1-0.3 2.5-0.2 2.5 3.8-0.5q3.7-0.5 4-1.7 0.2-1.3 3.7-0.8t4.3-0.2q0.7-0.8-1-2.6-1.8-1.7 0.7-1 2.5 0.8 3 1.6 0.5 0.7 2 0.4 1.5-0.2 1-1.4-0.5-1.3 0.5-1.6 1-0.2 2 2.3t3 3 2.5-0.3q0.5-0.7 4 0.8t3 0.2q-0.5-1.2 0.5-1.2t1 1 3 2.2q3 1.3 5.8 1 2.7-0.2 3 0.3z" fill="#241411" stroke="#241411"/>
  <path d="m213.2 303.5l1.3-0.5 1.3 0.8q1.2 0.7 1.7 1l0.5 0.2-0.2 18q-0.3 18 0 19l0.2 1 31 3.2q31 3.3 32.5 3.3t3.5-0.3l2-0.2-1.2 3q-1.3 3 0.7 5.5t2.5 5.5l0.5 3 0.3-1q0.2-1 2.7-1.2 2.5-0.3 3.3-1 0.7-0.8 1.2 0.2t1.5-0.5 1.7-0.3q0.8 1.3 2 1 1.3-0.2 1.6 0.8 0.2 1 4.2 1.8 4 0.7 5 0.4l1-0.2v2h-1q-1 0-0.5 4t-1 4-1.3 1.5q0.3 1.5-0.4 3.3-0.8 1.7-1.3 1.2t-2-0.5h-1.5l0.2 0.3 0.3 0.2 3 6q3 6 4 9t0.5 9.5-0.5 13 1 9 3.7 9q2.8 6.5 6.6 10 3.7 3.5 6.2 7.5t5 11.5 3 11.5 0.8 11l0.2 7h2v3l0.2 16q0.3 16-1.7 21t-2.5 6l-0.5 1-0.3 0.2-0.2 0.3-0.2 0.3-0.3 0.2-0.3 2.5-0.2 2.5h-0.5l-0.5-1-0.5-1-0.3-0.2-0.2-0.3-0.2-0.3-0.3-0.2-0.3-0.2-0.2-0.3-0.2-0.3-0.3-0.2-0.3-0.2-0.2-0.3-0.2-0.3-0.3-0.2-0.3-0.2-0.2-0.3-0.2-0.3-0.3-0.2-0.5-1q-0.5-1-2-2.5t-1-5-0.8-5.7q-1.2-2.3-5.2-4.3t-7-6-5.8-9.3q-2.7-5.2-6-10.4-3.2-5.3-7.7-12l-4.5-6.8-0.2-0.5-0.3-0.5-0.3-1-0.2-1h-1q-1 0-2.2-2-1.3-2-1.3-12t-1-14.5l-1-4.5-0.3-1-0.2-1h-2v-4l-1 0.2-1 0.3 0.2 0.3 0.3 0.2 0.3 0.2 0.2 0.3-1 0.5q-1 0.5-2.2 3.2-1.3 2.8-1.8 1.8t-4.2-0.5q-3.8 0.5-4.8-1.3-1-1.7-2.2 0-1.3 1.8-1.8-0.2t-1 0.5l-0.5 2.5-0.5 1-0.5 1-0.3 0.2-0.2 0.3h-1l-0.2-0.3-0.3-0.2-0.3-0.2-0.2-0.3-0.2-0.3-0.3-0.2-0.3-0.2-0.2-0.3-0.2-0.3-0.3-0.2-0.3-0.2-0.2-0.3-0.2-0.3-0.3-0.2-0.5-6.5q-0.5-6.5-1.5-8.5t-1.7-1.2q-0.8 0.7-1.6-8-0.7-8.8-3.7-19.8t-7-17-7.3-7.2q-3.2-1.3-5.2-3.8t-2.5-1.8q-0.5 0.8-1.5 0.8t-1-1-1-1-3.8-4q-2.7-4-4.4-4-1.8 0-2.3-1l-0.5-1-0.2-0.5-0.3-0.5-0.3-0.2q-0.2-0.3-1.7-1.3t-2.5-4.3l-1-3.2h1q1 0 0-2.2l-1-2.3-1-0.3-1-0.2v-2l1 0.2 1 0.3 3 0.5 3 0.5 1.5 0.3 1.5 0.2-0.2-1.5-0.3-1.5-0.3-0.2-0.2-0.3-1-0.5q-1-0.5-2.2-1.8-1.3-1.2 1-5.7 2.2-4.5 3.2-4.5t1.5-12.5 1.7-13z" fill="#006091" stroke="#006091"/>
  <path d="m41.8 477.8l0.2-0.3h4l0.2 0.3 0.3 0.2 0.3 0.2 0.2 0.3 0.2 0.3 0.3 0.2 0.3 0.2 0.2 0.3 12.5 12.5q12.5 12.5 13 12.8l0.5 0.2v0.5l0.2 0.3 0.3 0.2 0.3 0.2 0.2 0.3 0.2 0.3 0.3 0.2 0.3 0.2 0.2 0.3 0.2 0.3 0.3 0.2 0.3 0.2 0.2 0.3 0.2 0.3 0.3 0.2 0.5 1 0.5 1 0.3 0.2 0.2 0.3 0.2 0.3 0.3 0.2 3 3.5q3 3.5 3.5 4.5l0.5 1 0.3 0.2 0.2 0.3 0.2 0.3 0.3 0.2 0.3 0.2 0.2 0.3 0.2 0.3 0.3 0.2 0.3 0.2 0.2 0.3 1 0.5 1 0.5 0.2 0.3 0.3 0.2 0.3 1 0.2 1-1-0.2-1-0.3-0.2-0.3-0.3-0.2-0.3-0.2-0.2-0.3-0.2-0.3-0.3-0.2-0.3-0.2-0.2-0.3-3.5-0.5q-3.5-0.5-5.5-0.5t-1.8 1.3l0.3 1.2-0.3 0.2-0.2 0.3-0.2 0.3-0.3 0.2-0.3 0.2-0.2 0.3-4 1.5q-4 1.5-4.2 1.8l-0.3 0.2-0.3 0.2-0.2 0.3-0.2 0.3-0.3 0.2-0.3 0.2-0.2 0.3-0.2 0.3-0.3 0.2 0.7 1.8q0.8 1.7 2.3 2 1.5 0.2 1.5 1.2t-1.2 1.5q-1.3 0.5-1.6 1.5-0.2 1-1.2 1t-1 2v2l1 0.2q1 0.3 3.5 0.8l2.5 0.5-0.2 0.3-0.3 0.2-0.3 0.2-0.2 0.3-0.2 0.3-0.3 0.2-0.3 0.2-0.2 0.3-0.2 0.3-0.3 0.2-0.3 0.2-0.2 0.3-4 2.7q-4 2.8-4.5 4.8t1 2.2q1.5 0.3 2.5 0.8l1 0.5-0.2 0.3-0.3 0.2-0.3 0.2-0.2 0.3-1 0.5-1 0.5-4.2 3.3q-4.3 3.2-4.8 4.2t-1 2l-0.5 1-0.3 0.2-0.2 0.3 2.5 0.3q2.5 0.2 1.5 3-1 2.7 0 2.7t4.5 0h3.5l-0.2 0.3-0.3 0.2-0.5 1.5-0.5 1.5-0.3 0.2-0.2 0.3-0.2 0.3-0.3 0.2-0.3 0.2-0.2 0.3-6 5q-6 5-21 14t-16 9.5l-1 0.5-0.5 0.3-0.5 0.2h-0.2q-0.3 0-0.6 0.5l-0.2 0.5h-0.2q-0.3 0-0.6 0.5l-0.2 0.5-3 1.2q-3 1.3-4 1.8l-1 0.5-1.5 0.5-1.5 0.5-0.2 0.3-0.3 0.2-0.5-2.5-0.5-2.5h-0.5v-114l2-0.2 2-0.3 2.5-0.5 2.5-0.5 1.5-0.5 1.5-0.5 1.5-0.3q1.5-0.2 1-7.7l-0.5-7.5 3 0.2q3 0.3 6 0.8t4 2.2q1 1.8 2 1.8t1-1 1-0.8q1 0.3 4.5 0.3t4.5-5l1-5 0.2-0.3 0.3-0.2 0.3-0.2zm30.7 45q-2.5-1.3 0-1 2.5 0.2 2.5 1.2t-2.5-0.2z" fill="#006690" stroke="#006690"/>
  <path d="m126 357l1-0.5h3l1.5 0.3 1.5 0.2v3l-1.5 0.2-1.5 0.3-0.2 0.3-0.3 0.2-0.3 0.2-0.2 0.3-4 3q-4 3-4.8 3.3-0.7 0.2-0.4 2.4 0.2 2.3-0.6 4.6-0.7 2.2-0.4 3.7 0.2 1.5-3.3 2.5t-4 2.2q-0.5 1.3-1.5 1.6-1 0.2-3.5 6-2.5 5.7-0.7 6.4 1.7 0.8 1.4 2.8-0.2 2-1.7 2.2-1.5 0.3-1.5 0.6v0.2h-0.2q-0.3 0-0.6 0.5l-0.2 0.5-2.5 2.8q-2.5 2.7-9.7 5.4-7.3 2.8-8.8 3.3t-1.2 3q0.2 2.5-1.8 2.3-2-0.3-4.5 0-2.5 0.2-2.5 1.7t-3.5 1.3q-3.5-0.3-5.5 0.2l-2 0.5-1 0.5-1 0.5 1 0.5 1 0.5 0.2 0.3 0.3 0.2 0.3 0.2 0.2 0.3 1.5 0.5 1.5 0.5-1 0.5-1 0.5h-5l0.2 0.3 0.3 0.2 0.3 0.2 0.2 0.3 1.5 0.5 1.5 0.5 1 0.5q1 0.5 2.5 1l1.5 0.5h3l0.2-0.3 0.3-0.2 0.3 1 0.2 1-2 0.2-2 0.3 0.2 0.3 0.3 0.2 0.3 0.2 0.2 0.3-0.2 0.3-0.3 0.2-0.3 0.2-0.2 0.3-5.5 0.5-5.5 0.5 4.5 0.5 4.5 0.5 5.5 0.5 5.5 0.5-6 0.5-6 0.5-0.2 0.3-0.3 0.2-0.3 0.2-0.2 0.3 1 0.3 1 0.2 0.2 1 0.3 1 0.3 0.2 0.2 0.3 0.2 0.3 0.3 0.2 0.3 0.2 0.2 0.3 0.2 0.3 0.3 0.2 0.3 0.2 0.2 0.3 3 1q3 1 1 1.5t5.5 2.2q7.5 1.8 7.5 7.3t1 5.5 2.5 2.2q1.5 2.3 2.5 2.6 1 0.2 2.2 2.2 1.3 2 1.6 2.2l0.2 0.3 0.2 0.3 0.3 0.2 0.3 0.2 0.2 0.3 0.2 0.3 0.3 0.2 0.3 0.2 0.2 0.3 1 0.5 1 0.5 1 0.3 1 0.2v2l-1-0.2-1-0.3-1.5-0.5-1.5-0.5-1.5-0.5q-1.5-0.5-5-2l-3.5-1.5-0.2-0.3-0.3-0.2-0.3 0.2-0.2 0.3-0.2 0.3-0.3 0.2-0.3 0.2-0.2 0.3-1 0.3-1 0.2-0.2 2.5-0.3 2.5 0.7 3.2q0.8 3.3 4.6 11 3.7 7.8 4.2 9.3l0.5 1.5v2l-0.3 0.2-0.2 0.3-0.2 0.3-0.3 0.2-0.3 1.5-0.2 1.5-2-0.2-2-0.3-1.5-0.5-1.5-0.5-0.2-0.3-0.3-0.2-0.3-0.2q-0.2-0.3-1.2-0.8l-1-0.5-0.2-0.3-0.3-0.2-0.3-0.2-0.2-0.3-0.2-0.3-0.3-0.2-0.3-0.2-0.2-0.3-1-0.5-1-0.5-1-0.3-1-0.2-0.5-0.2q-0.5-0.3-13-12.8l-12.5-12.5-0.2-0.3-0.3-0.2-0.3-0.2-0.2-0.3-0.2-0.3-0.3-0.2-0.3-0.2-0.2-0.3h-4l-0.2 0.3-0.3 0.2-0.3 0.2-0.2 0.3-1 5q-1 5-4.5 5t-4.5-0.3q-1-0.2-1 0.8t-1 1-2-1.8q-1-1.7-4-2.2t-6-0.8l-3-0.2 0.5 7.5q0.5 7.5-1 7.7l-1.5 0.3-1.5 0.5-1.5 0.5-2.5 0.5-2.5 0.5-2 0.3-2 0.2v-46h0.5l0.5-3.5 0.5-3.5 0.5-2.5q0.5-2.5 1.5-6.5t6-16 17.5-27.5 17.5-20.5 9.7-11q4.8-6 8.8-7.5l4-1.5 5.2 0.5q5.3 0.5 7.6 2.3 2.2 1.7 4 1 1.7-0.8 3 0.4 1.2 1.3 4.2 0.3t8.5-2 13.5-3 8-0.3q0 1.8 2 1.6 2-0.3 3-0.8z" fill="#1681a5" stroke="#1681a5"/>
  <path d="m345 157.8l1 0.2v0.2q0 0.3 0.5 0.6l0.5 0.2v0.2q0 0.3 0.5 0.6l0.5 0.2v0.2q0 0.3 0.5 0.6l0.5 0.2v0.2q0 0.3 0.5 0.6l0.5 0.2 5.8 8.5q5.7 8.5 6.4 10.7 0.8 2.3 1.6 3 0.7 0.8 1.2 1.8t1 4l0.5 3h0.5v2.2q0 2.3 1 2.6 1 0.2 0.2 3.7-0.7 3.5-0.7 7t-0.3 3.7l-0.2 0.3v0.5l-0.5 0.2-0.5 0.3-0.2 0.3-0.3 0.2v2l0.3 0.2 0.2 0.3 1.5 0.5q1.5 0.5 3.5 0.8l2 0.2-0.2 1-0.3 1-0.7 1.8q-0.8 1.7-1.8 2-1 0.2-2 4.7t0 4.5 1.8 3q0.7 3 2.2 3.5t0.8 1.3q-0.8 0.7-2 2.4-1.3 1.8-2 4.8-0.8 3 0.2 3t-0.5 2.8q-1.5 2.7-0.5 3 1 0.2 1 1.2t-1.2 0.5q-1.3-0.5-2 2.3-0.8 2.7-2.3 3-1.5 0.2-1 3 0.5 2.7-1.7 3.4-2.3 0.8-2.6 1.8-0.2 1-3 2-2.7 1-4 4.2-1.2 3.3 1 3.6 2.3 0.2 0.8 1.7t-3.5 4-1.3 3.7q0.8 1.3-1.7 2-2.5 0.8-2.5 1.8t-2.5 2-3 3.2q-0.5 2.3-7 2.6-6.5 0.2-6.5-0.8t-2.8 0q-2.7 1-3 1.2l-0.2 0.3-0.2 0.3-0.3 0.2-0.5 1-0.5 1-0.3 5-0.2 5 1.2 4q1.3 4 4.6 14 3.2 10 2.2 10t-0.8 1q0.3 1 0.8 2.5l0.5 1.5 0.3 1.5 0.2 1.5h-3l-0.2 1-0.3 1-0.3-0.2-0.2-0.3-1.5-0.3-1.5-0.2-0.2-0.5-0.3-0.5h-0.5l-0.2-0.5-0.3-0.5-0.5-1q-0.5-1-8-13.5t-24.2-42.7q-16.8-30.3-20.3-37l-3.5-6.8 1-0.2q1-0.3 5.2-5 4.3-4.8 6.8-9.3l2.5-4.5-0.3-1-0.2-1h2l0.5 2.8q0.5 2.7 1.5 3 1 0.2 1 1.2v1h6v-1q0-1 4.8-3 4.7-2 5.7-3t1.7-3.2q0.8-2.3 7-5 6.3-2.8 7.8-4.3t2.5-18.5 4.5-25 7.2-11.8q3.8-3.7 9.8-4.2t7-0.2z" fill="#b47458" stroke="#b47458"/>
  <path d="m727 493.5h4l1 0.3 1 0.2v1q0 1 1 1t2.2 3q1.3 3 0.8 11t-5 13.5-10.5 10-6.3 4.5h-0.2l-2.5 1.8q-2.5 1.7-10 0.7t-8.7 0.3q-1.3 1.2-2.8 2.2t-2 3.5 0.2 5.3q0.8 2.7 0.3 6.2t1.5 7.2q2 3.8 5.8 5.8 3.7 2 5.4 3.8 1.8 1.7 11.8 3.2t14 0 6.8 0.2q2.7 1.8 3 3.6 0.2 1.7 1.7 2.2t2 1.2q0.5 0.8 4.7 0.3 4.3-0.5 4.6-2.5 0.2-2 2.4-1 2.3 1 2.6 2 0.2 1 2.7 0.2 2.5-0.7 10 1.8t11 5.5 4.5 3.5l1 0.5 0.2 0.3 0.3 0.2 0.3 0.2 0.2 0.3 2 0.5 2 0.5 0.2 0.3 0.3 0.2 0.3 0.2 0.2 0.3 0.2 0.3 0.3 0.2 0.3 0.5 0.2 0.5-7-0.2q-7-0.3-12.5-1.3t-11-1-14 0.5l-8.5 0.5h-4l-0.2 0.3-0.3 0.2-0.3 1-0.2 1 1 0.2q1 0.3 3.5 0.8l2.5 0.5-1 0.5-1 0.5-0.2 0.3q-0.3 0.2-2 0.7-1.8 0.5-1.6 3 0.3 2.5-2.4 4.3-2.8 1.7-3 3-0.3 1.2 1.4 2 1.8 0.7-6.7 2.7t-14 2.3q-5.5 0.2-5.7 1.2-0.3 1-2 1.8-1.8 0.7-1 1.4 0.7 0.8-3 3-3.8 2.3-8.3 3l-4.5 0.8v3l2 0.2 2 0.3h7l1.5 0.5 1.5 0.5-2 0.3q-2 0.2-2 1.7v1.5l1.5 0.2 1.5 0.3 2.5 0.5 2.5 0.5 4 0.5 4 0.5v0.5l-0.5 0.2-0.5 0.3-3.5 0.5-3.5 0.5h-11q-11 0-24 0t-14.8 5.3l-1.7 5.2-0.3 1-0.2 1h-0.5l-0.3 0.2-0.2 0.3h-1l-0.2-0.3-0.3-0.2-0.3-2q-0.2-2-4.2-2h-7q-3 0-3.8-4-0.7-4-1-43l-0.2-39h0.2q0.3 0 6.8-19t7-28.5-1.5-12.5l-2-3-0.3-0.2-0.2-0.3-0.2-0.3-0.3-0.2-0.3-0.2-0.2-0.3 4-0.3q4-0.2 3.8-2.2l-0.3-2-0.3-0.2-0.2-0.3 0.2-0.3 0.3-0.2v-2l-0.3-1-0.2-1h2l0.2 1 0.3 1 0.5 1 0.5 1 0.5 1 0.5 1 1.7 3.2q1.8 3.3 5 11 3.3 7.8 4.8 11.3t2 5l0.5 1.5 0.5 1 0.5 1 0.3 0.2 0.2 0.3h4l6.5-5q6.5-5 12.3-8.3 5.7-3.2 16.2-13.7t11-9.5 2.2-1.8q1.8-2.7 5.8-2.7z" fill="#aa785b" stroke="#aa785b"/>
  <path d="m589 196l1-0.5h5l1 0.5 1 0.5 0.2 0.3 0.3 0.2 0.7 3.2q0.8 3.3 2.3 6.8t3.3 5.2q1.7 1.8 2 3.3l0.2 1.5 1.2 7.5q1.3 7.5 2.3 23.5t1 19-0.5 6.5 0 6.5l0.5 3 0.5 1 0.5 1 0.5 1 0.5 1 0.3-0.2 0.2-0.3 0.2-0.3 0.3-0.2 0.5-1 0.5-1 0.5-8 0.5-8 0.3-0.2 0.2-0.3 1-0.3 1-0.2 0.2 1.5 0.3 1.5 0.3 0.2 0.2 0.3 0.2 0.3 0.3 0.2 0.5 1 0.5 1 0.7 8.5q0.8 8.5-0.2 8.5t-1 7.5-1.8 8q-1.7 0.5-1.7 6t0.3 7l0.2 1.5-2-0.2q-2-0.3-3-0.8t-2.5-0.2l-1.5 0.2-2.2 15.5q-2.3 15.5-4.8 22t-3 10l-0.5 3.5-0.3 1.5-0.2 1.5h-0.5l-0.5 1-0.5 1-0.5-3.5-0.5-3.5-0.3 0.2-0.2 0.3-0.2 0.3-0.3 0.2-0.3 1-0.2 1-1-0.2-1-0.3-0.2-0.3-0.3-0.2-0.3-0.2q-0.2-0.3-0.4-11-0.3-10.8-1.3-15.3t-4-7.5-11.3-7.2q-8.2-4.3-9.7-11-1.5-6.8-2.5-6.8t-1-3v-3l0.2-2.5q0.3-2.5 0.8-4.5t1.5-20.5-1-33-2-22v-7.5l0.3-0.2 0.2-0.3 0.2-0.3 0.3-0.2 0.3-1 0.2-1 1-0.2 1-0.3h6l0.2 0.3 0.3 0.2 0.3 0.2 0.2 0.3 0.2 0.3 0.3 0.2 0.3 0.2 0.2 0.3 0.2 0.3 0.3 0.2 4 12q4 12 5 17t1.5 6.5l0.5 1.5 0.5 1 0.5 1 0.5 1 0.5 1 0.3 1 0.2 1h2l0.2-1 0.3-1v-6l-0.5-8q-0.5-8-1.5-24l-1-16 0.5-1 0.5-1 0.3-0.2 0.2-0.3 0.2-0.3 0.3-0.2 0.3-0.2 0.2-0.3 0.2-0.3 0.3-0.2 0.3-0.2 0.2-0.3 1-0.5z" fill="#7e4e37" stroke="#7e4e37"/>
  <path d="m211 641.5v-1.5h2l18.2 16q18.3 16 18.6 17 0.2 1 6.2 5.8 6 4.7 7.2 6 1.3 1.2 3 5.4 1.8 4.3 3.8 5.8t3.5 0 2.5-1.5 2.5 0.5l1.5 0.5 0.2 0.3 0.3 0.2 0.3 0.2 0.2 0.3 0.2 0.3 0.3 0.2 0.3 2.5 0.2 2.5-6.8 23q-6.7 23-16.7 47t-20.5 37-15 19-5 7l-0.5 1-0.5 2-0.5 2-0.3 2-0.2 2h-138v-0.5l-1-0.5-1-0.5 1-0.5 1-0.5 1.5-0.5 1.5-0.5 0.2-0.3 0.3-0.2 0.3-0.2 0.2-0.3 1.5-0.5q1.5-0.5 25.3-7.8 23.7-7.2 33.4-10.4 9.8-3.3 28.8-12 19-8.8 19-9.8t2.8-2.5l2.7-1.5 0.5-1 0.5-1v-5l-0.3-0.2-0.2-0.3-1-0.3-1-0.2-0.2-1.5-0.3-1.5-0.3-0.2-0.2-0.3-1.5-0.5q-1.5-0.5-3-1t-10-1.5-13-1-11.5 0.7q-7 0.8-7-0.2t-1.5-1-2-0.8q-0.5-0.7-2.3-1.4-1.7-0.8-6.4-1.3-4.8-0.5-4.8-1.5t-4.5-1.2q-4.5-0.3-6.5-1.3t-3.5-4.3q-1.5-3.2-2.5-3.2t-2.2-2q-1.3-2-8.8-4.5t-8.8 0q-1.2 2.5-8.2 3.5t-7.5 3.2q-0.5 2.3-2.3 2.6-1.7 0.2-7.4 2-5.8 1.7-33.8 16.7l-28 15-1.5 0.5-1.5 0.5h-2l-0.2-0.3-0.3-0.2h-0.5v-15h0.5l0.3 0.2 0.2 0.3h1l1-0.5 1-0.5 1-0.5 1-0.5 1-0.5q1-0.5 26.8-16.2 25.7-15.8 38-22.6 12.2-6.7 30.7-20.7t24-22.3q5.5-8.2 4.5-8.2t-0.8-1q0.3-1-1.4-1.5-1.8-0.5-1.6-2 0.3-1.5 1.6-2 1.2-0.5 1.2-1.5t1.8-2.5l1.7-1.5 0.3-0.2 0.2-0.3 0.2-0.3 0.3-0.2 0.3-0.2 0.2-0.3v-0.5l0.5-0.2q0.5-0.3 1.5-0.8t20.8-13.8l19.7-13.2 0.3 0.2 0.2 0.3h1l1-0.5 1-0.5 1-0.5 1-0.5 0.2-0.3 0.3-0.2 0.3-0.2 0.2-0.3h2l-0.2 0.3-0.3 0.2-0.5 1-0.5 1-0.5 1-0.5 1-1.5 2.5q-1.5 2.5-1.8 2.7l-0.2 0.3-0.2 0.3-0.3 0.2-0.3 0.2-0.2 0.3-0.2 0.3-0.3 0.2-0.3 2-0.2 2 1-0.2 1-0.3 0.2-0.3 0.3-0.2 0.3-0.2 0.2-0.3 1-0.5 1-0.5 0.2-0.3 0.3-0.2 0.3-0.2 0.2-0.3 0.2-0.3 0.3-0.2 0.3-0.2 0.2-0.3 0.2-0.3q0.3-0.2 3-1.7 2.8-1.5 4.3-4.5t3.5-3.2q2-0.3 3.5-2 1.5-1.8 3-2 1.5-0.3 2.3-1.6 0.7-1.2 3.4-1.7l2.8-0.5v-1.5z" fill="#002643" stroke="#002643"/>
  <path d="m275.2 725l6.8-23 3.5 2.8q3.5 2.7 7.5 2.7t11.2 4.7q7.3 4.8 6.6 8-0.8 3.3 0.2 3.6 1 0.2 1.2 1.2l0.3 1 1-1.5q1-1.5 1.3-0.5 0.2 1 2.2 1t2.2 1.5l0.3 1.5 0.3-0.2 0.2-0.3 0.2-0.3q0.3-0.2 2.3-3.7t5.3-3.7l3.2-0.3 0.5 0.3 0.5 0.2 4.5 0.2 4.5 0.3 0.2 0.3 0.3 0.2-1 5.5q-1 5.5-1 9.5v4l0.3-0.2 0.2-0.3h2v0.5l-9 17.2q-9 17.3-26.8 48.6-17.7 31.2-18.2 32.2l-0.5 1-0.5 1-0.5 1-0.3 0.2-0.2 0.3-0.2 0.3-0.3 0.2-0.3 1-0.2 1h-69l0.2-2 0.3-2 0.5-2 0.5-2 0.5-1q0.5-1 5-7t15-19 20.5-37 16.7-47z" fill="#072c3e" stroke="#072c3e"/>
  <path d="m785 599.8l7 0.2 16.5 1.8q16.5 1.7 25.5 4.2t10.2 4.2q1.3 1.8 2 4.6 0.8 2.7 3.3 2.7t6.5 2 5.5 2 2.5 0.5l1 0.5 0.2 0.3 0.3 0.2 0.5 1 0.5 1v2l-0.3 0.2-0.2 0.3-0.2 0.3-0.3 0.2-0.3 0.2-0.2 0.3-0.2 0.3-0.3 0.2-0.3 2.5-0.2 2.5v0.5h-7q-7 0-19.5 0t-31 2-36.5 3-38 2.7l-20 1.8v-0.5l-4-0.5-4-0.5-2.5-0.5-2.5-0.5-1.5-0.3-1.5-0.2v-1.5q0-1.5 2-1.7l2-0.3-1.5-0.5-1.5-0.5h-7l-2-0.3-2-0.2v-3l4.5-0.8q4.5-0.7 8.3-3 3.7-2.2 3-3-0.8-0.7 1-1.4 1.7-0.8 2-1.8 0.2-1 5.7-1.2 5.5-0.3 14-2.3t6.7-2.7q-1.7-0.8-1.4-2 0.2-1.3 3-3 2.7-1.8 2.4-4.3-0.2-2.5 1.6-3 1.7-0.5 2-0.7l0.2-0.3 1-0.5 1-0.5-2.5-0.5q-2.5-0.5-3.5-0.8l-1-0.2 0.2-1 0.3-1 0.3-0.2 0.2-0.3h4l8.5-0.5q8.5-0.5 14-0.5t11 1 12.5 1.3z" fill="#9c6c54" stroke="#9c6c54"/>
  <path d="m897.5 780.8l40.5 0.2 1 0.2q1 0.3 21 0.6l20 0.2v0.2q0 0.3 2.5 1.3t18.5 2.5 13.2 2.8q-2.7 1.2-2 2 0.8 0.7 0.3 1.2t2.5 1.5-15 2-36 2l-18 1v0.5l-1.5-0.2q-1.5-0.3-131-0.3h-129.5l-0.2 0.3q-0.3 0.2-0.6 9.7l-0.2 9.5h-2l-0.2 4q-0.3 4-0.8 2l-0.5-2-0.5-11.5-0.5-11.5-1.5 12q-1.5 12-3.8 13.8-2.2 1.7-3.4 1.4-1.3-0.2-1.8-1.2l-0.5-1-0.5-12q-0.5-12-1.8-12.8-1.2-0.7-2.2-0.4l-1 0.2-0.2-0.5q-0.3-0.5-0.6-0.5h-113.2v-0.5l6-0.5 6-0.5-2.5-0.5q-2.5-0.5-0.5-1l2-0.5 9-1.5q9-1.5 10.5-2t3.5-1l2-0.5 1-0.5 1-0.5 1.5-0.3 1.5-0.2-0.2-1.5-0.3-1.5-0.3-0.2-0.2-0.3-1-0.5-1-0.5-0.2-0.3-0.3-0.2-0.3-0.2-0.2-0.3-2.5-0.5-2.5-0.5-2-0.5-2-0.5v-0.5l42.8-0.5q42.7-0.5 43-1.5 0.2-1 10.2-0.8 10 0.3 11 1.3t87.5 1.5 127 0.8z" fill="#27211b" stroke="#27211b"/>
  <path d="m76.5 595.5h11.5l1 0.3 1 0.2-0.8 8.5q-0.7 8.5-2 14.3-1.2 5.7-11.7 17.7t-20.3 22.3q-9.7 10.2-10 10.4l-0.2 0.3-0.2 0.3-0.3 0.2-0.3 0.2-0.2 0.3-0.2 0.3-0.3 0.2-0.5 1-0.5 1-0.3 0.2-0.2 0.3-0.2 0.3-0.3 0.2-0.3 0.2-0.2 0.3-0.2 0.3-0.3 0.2-0.3 1-0.2 1 1-0.2q1-0.3 2-0.6l1-0.2v1q0 1-5.8 5.5-5.7 4.5-18.4 17.3-12.8 12.7-13 13l-0.3 0.2-0.3 0.2-0.2 0.3-0.2 0.3-0.3 0.2-0.3 0.2-0.2 0.3-0.2 0.3-0.3 0.2-0.3 0.2-0.2 0.3-0.2 0.3-0.3 0.2-0.3 0.2-0.2 0.3-1 0.5-1 0.5-0.5 0.3-0.5 0.2v-101h0.5l0.5 2.5 0.5 2.5 0.3-0.2 0.2-0.3 1.5-0.5 1.5-0.5 1-0.5q1-0.5 3.2-1.8l2.3-1.2 0.3-0.2 0.2-0.3 0.2-0.3 0.3-0.2 0.3-0.2 0.2-0.3 1-0.3 1-0.2-0.2 1-0.3 1-0.7 0.8q-0.8 0.7-1 1l-0.3 0.2-0.3 0.2-0.2 0.3-0.2 0.3-0.3 0.2-0.3 0.2-0.2 0.3 0.2 0.3 0.3 0.2 0.3 0.2 0.2 0.3h2l0.2-0.3 0.3-0.2 0.3-0.2 0.2-0.3 1-0.5 1-0.5 2-0.5q2-0.5 11-4.8 9-4.2 9-5.7t1.5-1.7q1.5-0.3 5-3 3.5-2.8 3.7-1.8 0.3 1 3.6-0.8 3.2-1.7 6.2-2.2t4.5-2 13-1.5z" fill="#00618e" stroke="#00618e"/>
  <path d="m939.8 733.5l-0.8 3.5-1 0.2q-1 0.3-1.8 1.6l-0.7 1.2-0.3 0.2-0.2 0.3-0.2 0.3q-0.3 0.2-0.8-1.8t-1.2-2.2l-0.8-0.3-1 0.3-1 0.2-0.2 1.5q-0.3 1.5-0.6 4-0.2 2.5-12.7 2.3-12.5-0.3-21 0.2t-21 0-12.7-1.2q-0.3-0.8 1.4-1 1.8-0.3 0.3-1.3l-1.5-1-0.2-0.3-0.3-0.2-0.3-0.2-0.2-0.3h-1q-1 0-3 0.3-2 0.2-2 1.7t-5 0.5l-5-1-0.2-8-0.3-8-0.3-0.2-0.2-0.3h-18.5q-18.5 0-67-0.3l-48.5-0.2h-9v-2l1.5-0.2 1.5-0.3-1.5-0.5-1.5-0.5 1-0.3 1-0.2v-2l-1-0.2-1-0.3v-0.5l73.5-0.8q73.5-0.7 75.5 0.3t43.5 1.5 46.5 1.8q5 1.2 3.5-0.6-1.5-1.7 1-2.2l2.5-0.5 1.5-0.5 1.5-0.5 0.2-0.3 0.3-0.2 0.7 2.8q0.8 2.7 1.6 3.4 0.7 0.8 0.2 2.3l-0.5 1.5v2l0.3-0.2 0.2-0.3 0.2-0.3 0.3-0.2 0.3-0.2 0.2-0.3 0.2-0.3 0.3-0.2 0.3-0.2 0.2-0.3 0.2-0.3 0.3-0.2 0.3-0.2 0.2-0.3 0.2-0.3 0.3-0.2 0.3-0.2 0.2-0.3 0.2-0.3 0.3-0.2 0.3-0.2 0.2-0.3 0.2-0.3q0.3-0.2 42.8-76.7t49-87 8.2-10.5q1.8 0 0.6 4-1.3 4-41.8 78.5t-46.5 84-10.3 12.7q-4.2 3.3-12 3.6-7.7 0.2-8.4 3.7z" fill="#3f322f" stroke="#3f322f"/>
  <path d="m500.8 177.2l0.2 0.3h2l0.2-0.3 0.3-0.2 0.3 0.2 0.2 0.3 1.5 0.5q1.5 0.5 2 0.8l0.5 0.2v0.2q0 0.3 0.5 0.6l0.5 0.2 0.5 2.5q0.5 2.5 2 2.3 1.5-0.3 5.7 2.4 4.3 2.8 5.8 7.3t5.2 5.3q3.8 0.7 7.3 3.7t4.5 3h1l0.2-0.3 0.3-0.2 0.3 0.2 0.2 0.3 0.2 0.3 0.3 0.2 0.3 0.2 0.2 0.3 1 0.5 1 0.5 0.2 0.3 0.3 0.2 0.3 0.5 0.2 0.5-1.5 0.2-1.5 0.3-0.2 0.3-0.3 0.2-4.3 2q-4.2 2-10 18.5-5.7 16.5-5.7 19.5t0 5.5v2.5l-0.5 1-0.5 1-0.5 1-0.5 1-0.3 0.2-0.2 0.3-0.2 0.3-0.3 0.2-0.3 0.2-0.2 0.3-0.2 0.3-0.3 0.2-0.3 0.2-0.2 0.3-1 0.3-1 0.2v-0.5l0.2-0.3 0.3-0.2 0.3-0.2 0.2-0.3 0.2-0.3 0.3-0.2 0.3-0.2 0.2-0.3 0.2-0.3 0.3-0.2v-4l-0.3-0.2-0.2-0.3-0.2-0.3-0.3-0.2-0.5-1-0.5-1-0.3-0.2-0.2-0.3-0.2-0.3-0.3-0.2-0.3-0.2-0.2-0.3-1-0.3-1-0.2 0.2-1 0.3-1 0.3-0.2 0.2-0.3h-1.5q-1.5 0-4.5-0.3-3-0.2-3 0.8t-1 1.2q-1 0.3-1.5 1.6l-0.5 1.2-1.5 0.2-1.5 0.3-0.2 0.3-0.3 0.2-0.5-3.5q-0.5-3.5-2.8-4.3-2.2-0.7-3.4-2-1.3-1.2-4-2.7-2.8-1.5-2.8-2.5t-1.5-1.2q-1.5-0.3-2-2.8t-4-5.5-10.5-6.3q-7-3.2-7-4.2t-4.8-3.5q-4.7-2.5-5.2-5t-1.2-3q-0.8-0.5-0.6-2.5 0.3-2-0.7-7t0.7-6.2q1.8-1.3 3.8-4 2-2.8 1-2.8t-1.2-1q-0.3-1 1-2 1.2-1 1.2-2t-2.8-1h-2.7l-0.3-0.2-0.2-0.3v-0.5l1-0.2q1-0.3 2-0.8l1-0.5-0.2-0.3q-0.3-0.2 0.7-1.2t-1.3-1.8q-2.2-0.7 0.3-3.2t3.5-4.8l1-2.2 5.5 0.2q5.5 0.3 7 1 1.5 0.8 1.5 1.8t10.2 0.5q10.3-0.5 11.8 3t1.8 2.5q0.2-1 1.2-1t1.5 1.2q0.5 1.3 2.3 1.6 1.7 0.2 2 0.4z" fill="#b9795f" stroke="#b9795f"/>
  <path d="m85.2 474.2l0.3-0.2 0.3 0.2 0.2 0.3 3.5 1.5q3.5 1.5 5 2l1.5 0.5 2 0.3 2 0.2v0.2q0 0.3 0.5 0.6l0.5 0.2 5.8 4.5q5.7 4.5 6 4.7l0.2 0.3 0.2 0.3 0.3 0.2 0.3 0.2 0.2 0.3 1 0.3 1 0.2v0.2q0 0.3 0.5 0.6l0.5 0.2v0.2q0 0.3 0.5 0.6l0.5 0.2v0.2q0 0.3 0.5 0.6l0.5 0.2v0.2q0 0.3 0.5 0.6l0.5 0.2 5.5 3.2q5.5 3.3 21 8.3t17 5.5l1.5 0.5 0.2 0.3 0.3 0.2 0.3 0.2 0.2 0.3 1 0.5 1 0.5 0.2 0.3 0.3 0.2v5l-0.3 1.5-0.2 1.5-1 0.2-1 0.3-7 2q-7 2-7.2 2.3-0.3 0.2-0.6 0.4l-0.2 0.3-0.2 0.3-0.3 0.2v3l2 6q2 6 7.7 12.5 5.8 6.5 17.6 15.5 11.7 9 13.4 10 1.8 1 1.8 2t1 1 3 4.8q2 4.7 7.5 10.2t13.5 8.2q8 2.8 8.5 4 0.5 1.3 1.5 1.6 1 0.2 5 6.4 4 6.3 5 6.6 1 0.2 1 1.2t3 2.2q3 1.3 8.5 1.3t8.5 1 5.2 15.3q2.3 14.2 2.8 16.7l0.5 2.5 0.5 1 0.5 1 0.5 1 0.5 1 0.3 0.2 0.2 0.3 0.2 0.3 0.3 0.2 0.5 1 0.5 1 0.3 0.2 0.2 0.3 0.2 0.3 0.3 0.2 0.5-4 0.5-4v-5.5q0-5.5 1-25.5l1-20 0.5-1.5 0.5-1.5 0.5-1 0.5-1 0.3-0.2 0.2-0.3v-0.5l0.5-0.2 0.5-0.3 0.2-0.3 0.3-0.2v7l0.5 2q0.5 2 2.5 27t4 33 7.3 16.2q5.2 8.3 6.2 8.6 1 0.2 2 2 1 1.7 2 2.2l1 0.5 0.2 0.3 0.3 0.2 0.3 0.2 0.2 0.3 1 0.5 1 0.5v0.5l0.2 1 0.3 1 0.3 0.2 0.2 0.3 0.2 0.3 0.3 0.2 0.3 0.2 0.2 0.3 0.2 0.3 0.3 0.2 0.3 0.2 0.2 0.3 3 1.5q3 1.5 9 2l6 0.5 1 0.5 1 0.5 0.2 0.3 0.3 0.2 0.3 0.2 0.2 0.3 0.2 0.3 0.3 0.2 0.3 0.2 0.2 0.3 1 0.5 1 0.5 0.2 0.3 0.3 0.2 0.3 0.2 0.2 0.3-1.5 0.5-1.5 0.5-0.2 0.3-0.3 0.2-0.3 0.5-0.2 0.5-0.5-0.2-0.5-0.3-3.2 0.3q-3.3 0.2-5.3 3.7t-2.3 3.7l-0.2 0.3h-0.5q-0.5 0-1.5-0.3-1-0.2-1-1.2t-1-1-1.2-1q-0.3-1-1.3 0.5l-1 1.5-0.3-1q-0.2-1-1.2-1.2-1-0.3-0.2-3.6 0.7-3.2-6.6-8-7.2-4.7-11.2-4.7t-5.8-1.7q-1.7-1.8-3-1.3-1.2 0.5-1.7-1l-0.5-1.5-0.2-2.5-0.3-2.5-0.3-0.2-0.2-0.3-0.2-0.3-0.3-0.2-0.3-0.2-0.2-0.3-1.5-0.5q-1.5-0.5-2.5-0.5t-2.5 1.5-3.5 0-3.8-5.8q-1.7-4.2-3-5.4-1.2-1.3-7.2-6-6-4.8-6.2-5.8-0.3-1-18.6-17l-18.2-16-0.2-0.5-0.3-0.5-0.3-0.2-0.2-0.3-1-0.5q-1-0.5-4.2-3.8-3.3-3.2-22-19.7-18.8-16.5-19-17.5-0.3-1-3-2.8-2.8-1.7-8.6 4l-5.7 5.8-0.3 0.2-0.2 0.3-1 0.3-1 0.2-2.5 0.2-2.5 0.3h-1l-0.2-0.3-0.3-0.2-0.3-0.2-0.2-0.3 0.2-0.3 0.3-0.2 0.3-0.2 0.2-0.3-0.2-0.3-0.3-0.2v-2l0.5-1 0.5-1 0.3-0.2 0.2-0.3 0.2-0.3q0.3-0.2 0.8-1.7t3.8-4.7l3.2-3.3 0.2-0.3 0.3-0.2v-5l-0.3-0.2-0.2-0.3-0.2-0.3-0.3-0.2-0.3-0.2-0.2-0.3-0.2-0.3-0.3-0.2-0.3-0.2-0.2-0.3-0.2-0.3-0.3-0.2-0.3-0.2-0.2-0.3-1-0.5-1-0.5h-3l-0.2 0.3-0.3 0.2-0.3 0.2-0.2 0.3-0.2 0.3-0.3 0.2-0.3 0.2-0.2 0.3-13.5 13q-13.5 13-15 13.5t-2.3 1.2q-0.7 0.8-1.2 1.8l-0.5 1-0.3 0.2-0.2 0.3-0.2 0.3-0.3 0.2-0.3 0.2-0.2 0.3-0.2 0.3-0.3 0.2-0.3 0.2-0.2 0.3-0.2 0.3-0.3 0.2-0.3 0.2-0.2 0.3-0.2 0.3-0.3 0.2-0.3 0.2-0.2 0.3-1 0.3-1 0.2 0.2-1 0.3-1 0.3-0.2 0.2-0.3 0.2-0.3 0.3-0.2 0.3-0.2 0.2-0.3 0.2-0.3 0.3-0.2 0.3-0.2 0.2-0.3 0.2-0.3 0.3-0.2 0.3-0.2 0.2-0.3 0.2-0.3 0.3-0.2 0.3-0.2 0.2-0.3 0.2-0.3 0.3-0.2 0.3-0.2q0.2-0.3 13.4-16 13.3-15.8 15.3-19.3t-20.3-25l-22.2-21.5-0.2-0.5q-0.3-0.5-0.6-0.5h-0.2l-0.2-0.5q-0.3-0.5-0.6-0.5h-0.2l-0.2-0.5q-0.3-0.5-0.6-0.7l-0.2-0.3-0.2-0.3-0.3-0.2-0.3-0.2-0.2-0.3-0.2-0.3-0.3-0.2-0.3-0.2-0.2-0.3-0.2-0.3-0.3-0.2-0.5-1q-0.5-1-3.5-4.5l-3-3.5-0.3-0.2-0.2-0.3-0.2-0.3-0.3-0.2-0.5-1-0.5-1-0.3-0.2-0.2-0.3-0.2-0.3-0.3-0.2-0.3-0.2-0.2-0.3-0.2-0.3-0.3-0.2-0.3-0.2-0.2-0.3-0.2-0.3-0.3-0.2-0.3-0.2-0.2-0.3v-0.5l1 0.2 1 0.3 1 0.5 1 0.5 0.2 0.3 0.3 0.2 0.3 0.2 0.2 0.3 0.2 0.3 0.3 0.2 0.3 0.2 0.2 0.3 1 0.5q1 0.5 1.2 0.8l0.3 0.2 0.3 0.2 0.2 0.3 1.5 0.5 1.5 0.5 2 0.3 2 0.2v-2h-2v-2l1 0.2 1 0.3h1l0.2-0.3 0.3-0.2v-2l-0.5-1.5q-0.5-1.5-4.2-9.3-3.8-7.7-4.6-11l-0.7-3.2 0.3-2.5 0.2-2.5 1-0.2 1-0.3 0.2-0.3 0.3-0.2 0.3-0.2 0.2-0.3 0.2-0.3z" fill="#005d7c" stroke="#005d7c"/>
  <path d="m507.2 91l-0.2-2 3.5 3.8q3.5 3.7 5 4 1.5 0.2 4.3 3.7 2.7 3.5 3 3.7l0.2 0.3 0.2 0.3 0.3 0.2 0.3 0.2 0.2 0.3 0.2 0.3 0.3 0.2 0.7-1.2q0.8-1.3 1.6-2 0.7-0.8 0.7-1.8v-1l-0.3-0.2-0.2-0.3 0.2-0.3 0.3-0.2 0.3-0.2 0.2-0.3 0.2-0.3 0.3-0.2 1.3 3.8q1.2 3.7 2.2 4 1 0.2 1.8 3.7 0.7 3.5 2 1.7 1.2-1.7 2-1.4 0.7 0.2-0.8 2.2t-1.8 3.5l-0.2 1.5h2v-1.5q0-1.5 2.5-1.7l2.5-0.3 0.2-0.3 0.3-0.2 0.7 1.2q0.8 1.3 1.6 0.6 0.7-0.8 0.4 1-0.2 1.7 0.6 2.4 0.7 0.8 0.4 1.8-0.2 1 0.8 1t1.5-1.2q0.5-1.3 0.7-1.6l0.3-0.2v5q0 5 0.5 4t0.8 0.5q0.2 1.5 1.2 1.5t1 1-2 2.2q-2 1.3-1 1.6 1 0.2 0.8 1.7l-0.3 1.5-0.3 2-0.2 2h2v-1q0-1 2-1.8 2-0.7 5.5-0.7h3.5l-0.2 0.3-0.3 0.2-0.3 0.2-0.2 0.3 0.2 0.3 0.3 0.2-0.3 2.2q-0.2 2.3-0.4 2.6l-0.3 0.2-0.5 1-0.5 1-0.3 0.2-0.2 0.3h3l0.2-0.3 0.3-0.2 0.3-0.2 0.2-0.3 0.2-0.3 0.3-0.2 0.3-0.2 0.2-0.3 0.5-1.3q0.5-1.2 1.7-1.7 1.3-0.5 1.8-2l0.5-1.5 0.3 0.2 0.2 0.3 2.2 0.3q2.3 0.2 3 2.4 0.8 2.3 2.8 2.3h2l1-0.5 1-0.5 0.2-0.3 0.3-0.2 0.3-0.2 0.2-0.3 1-0.3 1-0.2-0.2 1-0.3 1-0.3 0.2-0.2 0.3-0.2 0.3-0.3 0.2-0.3 1q-0.2 1-2.4 2.5-2.3 1.5-2.6 3-0.2 1.5 0.8 1.5t1 4 1 4 1.5-1.2q0.5-1.3 0.7-1l0.3 0.2v2l-0.3 1q-0.2 1-1.2 1t-2.8 7q-1.7 7-5.2 15.5t-5.8 10.7q-2.2 2.3-3.4 5-1.3 2.8-7.6 5.3-6.2 2.5-6.2 3.5t-2.5 1h-2.5l-0.2-0.5-0.3-0.5-0.3-0.2-0.2-0.3-1-0.5-1-0.5-0.2-0.3-0.3-0.2-0.3-0.2-0.2-0.3-0.2-0.3-0.3-0.2-0.3 0.2-0.2 0.3h-1q-1 0-4.5-3t-7.3-3.7q-3.7-0.8-5.2-5.3t-5.8-7.3q-4.2-2.7-5.7-2.4-1.5 0.2-2-2.3l-0.5-2.5-0.2-0.5q-0.3-0.5-0.6-0.5h-0.2l-0.2-1-0.3-1-0.5-1.5q-0.5-1.5-2.5-3.5l-2-2-0.3-0.2-0.2-0.3-0.2-0.3-0.3-0.2-0.3-1-0.2-1 2 0.2q2 0.3 5.5-2.2t4.5-2.8l1-0.2v-2h-2l-0.2-1q-0.3-1-2.3-6t-2.5-3.5-3-2l-2.5-3.5-0.3-0.2-0.2-0.3 0.2-0.3 0.3-0.2v-1l-0.3-0.2-0.2-0.3-0.2-0.3-0.3-0.2-0.3-0.2-0.2-0.3-0.2-0.3-0.3-0.2-0.3-1-0.2-1h2l1 1.8q1 1.7 2.5 1.2t2.5-0.8l1-0.2v-1q0-1 1-1h1l0.2-1 0.3-1v-5l0.3-0.2q0.2-0.3 0.4-0.6 0.3-0.2-0.4-1-0.8-0.7-1-1.4-0.3-0.8-3-1.6l-2.8-0.7 5.5-0.5 5.5-0.5-0.2-0.3-0.3-0.2-0.3-0.2-0.2-0.3-1.5-0.5-1.5-0.5-0.2-0.3-0.3-0.2-0.3 0.2-0.2 0.3-0.2 0.3-0.3 0.2-0.3-0.2-0.2-0.3-0.2-0.3-0.3-0.2-0.3-0.2q-0.2-0.3-0.4-1.6-0.3-1.2-1.6-1.7-1.2-0.5-1.2-1.5t-1-1.2q-1-0.3-2.5-2.8t-3.5-8.2l-2-5.8 1.8 0.5q1.7 0.5 1.4-2-0.2-2.5 2.6-2.5 2.7 0 4.2-1t1.2-3zm32.6 27.8l0.2-0.3 0.8 0.3q0.7 0.2 0.4 0.4l-0.2 0.3-0.2 0.3-0.3 0.2-0.3 0.2-0.2 0.3-0.2 0.3-0.3 0.2v-2l0.3-0.2z" fill="#2d1c18" stroke="#2d1c18"/>
  <path d="m205 288.2l7 0.8-0.5 0.8q-0.5 0.7 1.3 1.4 1.7 0.8 2.4 4.6 0.8 3.7 1.6 4.4 0.7 0.8 1 2.8l0.2 2-0.5-0.2q-0.5-0.3-1.7-1l-1.3-0.8-1.3 0.5q-1.2 0.5-1.7 13t-1.5 12.5-3.2 4.5q-2.3 4.5-1 5.7 1.2 1.3 2.2 1.8l1 0.5 0.2 0.3 0.3 0.2 0.3 1.5 0.2 1.5-1.5-0.2-1.5-0.3-3-0.3-3-0.2 1 3q1 3 0 3h-1l1 3.2q1 3.3 2.5 4.3t1.7 1.3l0.3 0.2 0.3 0.5 0.2 0.5-1-0.2-1-0.3-1 1q-1 1-4.5 2.7-3.5 1.8-4.5 5.8t-13 3.5-11.5 0.7q0.5 1.3-6 0.6-6.5-0.8-6.5 0.2t-5.5 3.2q-5.5 2.3-12.5 4.3t-8.2 3.7q-1.3 1.8-5.6 5.6-4.2 3.7-7.4 5-3.3 1.2-4 2-0.8 0.7-3.6 2-2.7 1.2-3 1.4l-0.2 0.3-0.2 0.3-0.3 0.2-0.3 0.2-0.2 0.3-1 0.5-1 0.5-1 0.3-1 0.2v-2h2v-2h2l0.2-1q0.3-1-1.4-1.8-1.8-0.7 0.7-6.4 2.5-5.8 3.5-6 1-0.3 1.5-1.6 0.5-1.2 4-2.2t3.3-2.5q-0.3-1.5 0.4-3.7 0.8-2.3 0.6-4.6-0.3-2.2 0.4-2.4 0.8-0.3 4.8-3.3l4-3 0.2-0.3 0.3-0.2 0.3-0.2 0.2-0.3 1.5-0.3 1.5-0.2v-3l-1.5-0.2-1.5-0.3h-3l-1 0.5q-1 0.5-3 0.8-2 0.2-2-1.6 0-1.7-8 0.3t-13.5 3-8.5 2-4.2-0.3q-1.3-1.2-3-0.4-1.8 0.7-4-1-2.3-1.8-7.6-2.3l-5.2-0.5 0.2-0.5 0.3-0.5 0.3-0.2 0.2-0.3 0.2-0.3 0.3-0.2 0.3-0.2 0.2-0.3 0.2-0.3 0.3-0.2 0.3-0.2 0.2-0.3 0.2-0.3 0.3-0.2 0.3-0.2 0.2-0.3 0.2-0.3q0.3-0.2 11.8-11.7t20.5-17 16.3-9.7q7.2-4.3 18.2-6.3t21.5-7 24.5-9 21-3.3z" fill="#1f83a9" stroke="#1f83a9"/>
  <path d="m980 782.2v-0.2h206v18l-42-0.2q-42-0.3-120-0.6l-78-0.2v-0.5l18-1q18-1 36-2t15-2-2.5-1.5-0.3-1.2q-0.7-0.8 2-2 2.8-1.3-13.2-2.8t-18.5-2.5-2.5-1.3z" fill="#312b28" stroke="#312b28"/>
  <path d="m931 736.8l1-0.3 0.8 0.3q0.7 0.2 1.2 2.2t0.8 1.8l0.2-0.3 0.2-0.3 0.3-0.2 0.7-1.2q0.8-1.3 1.8-1.6l1-0.2-0.2 1q-0.3 1-0.8 4.5t-3.5 6.5-14.3 4.5q-11.2 1.5-10.2 3.5l1 2-0.2 0.5q-0.3 0.5-16.6 0.7-16.2 0.3-22.2-0.7t-7.5-2-28-1.5-60.5-2.8l-34-2.2v-0.5l3-0.3 3-0.2v-2l1-0.2 1-0.3-3-0.3-3-0.2v-0.5l9.5-1q9.5-1 21.5-1.3 12-0.2 12 0.8t22-0.2q22-1.3 29-1.6l7-0.2v-2l5 1q5 1 5-0.5t2-1.7q2-0.3 3-0.3h1l0.2 0.3 0.3 0.2 0.3 0.2 0.2 0.3 1.5 1q1.5 1-0.3 1.3-1.7 0.2-1.4 1 0.2 0.7 12.7 1.2t21 0 21-0.2q12.5 0.2 12.7-2.3 0.3-2.5 0.6-4l0.2-1.5 1-0.2z" fill="#372721" stroke="#372721"/>
  <path d="m775 829.2l3-1.2 103.5 0.2q103.5 0.3 204 0.6l100.5 0.2v15h-402v-0.5l1.5-0.5 1.5-0.5 0.2-0.3 0.3-0.2 0.3-0.2 0.2-0.3-3.5-0.5q-3.5-0.5-2.5-1l1-0.5 1-0.5q1-0.5 0.8-1.2-0.3-0.8-3.6-2.6-3.2-1.7-3.2-2.7v-1l-3-0.5q-3-0.5 0-1.8z" fill="#adabad" stroke="#adabad"/>
  <path d="m712.5 539.8l2.5-1.8-0.2 0.5q-0.3 0.5-0.6 0.7l-0.2 0.3-0.2 0.3-0.3 0.2v7l0.3 0.2 0.2 0.3 0.2 0.3 0.3 0.2 0.3 0.2 0.2 0.3 0.2 0.3 0.3 0.2 0.3 0.2 0.2 0.3 0.2 0.3 0.3 0.2 33.7 9.2q33.8 9.3 51.3 12.8t32.5 8 21.2 8.8q6.3 4.2 8.6 10 2.2 5.7 8 9 5.7 3.2 6.7 4.7t0.5 7-1.2 6.3q-0.8 0.7-4.3 1.2l-3.5 0.5-0.2 0.3-0.3 0.2-0.5 1-0.5 1-0.3 0.2-0.2 0.3-0.2 0.3-0.3 0.2-0.3 0.2-0.2 0.3-0.2 0.3-0.3 0.2-0.3 0.2-0.2 0.3-0.2 0.3-0.3 0.2-0.3 0.2-0.2 0.3-0.2 0.3-0.3 0.2h-0.5l0.2-2.5 0.3-2.5 0.3-0.2 0.2-0.3 0.2-0.3 0.3-0.2 0.3-0.2 0.2-0.3 0.2-0.3 0.3-0.2v-2l-0.5-1-0.5-1-0.3-0.2-0.2-0.3-1-0.5q-1-0.5-2.5-0.5t-5.5-2-8-2.3q-4-0.2-3.2-2.7 0.7-2.5-0.6-4.3-1.2-1.7-10.2-4.2t-25.5-4.2l-16.5-1.8-0.2-0.5-0.3-0.5-0.3-0.2-0.2-0.3-0.2-0.3-0.3-0.2-0.3-0.2-0.2-0.3-2-0.5-2-0.5-0.2-0.3-0.3-0.2-0.3-0.2-0.2-0.3-1-0.5q-1-0.5-4.5-3.5t-11-5.5-10-1.8q-2.5 0.8-2.7-0.2-0.3-1-1.6-1.5-1.2-0.5-1.2 1t-5.5 2-6-0.3q-0.5-0.7-2-1.2t-1.7-2.2q-0.3-1.8-3-3.6-2.8-1.7-6.8-0.2t-14 0-11.8-3.2q-1.7-1.8-5.4-3.8-3.8-2-5.8-5.8-2-3.7-1.5-7.2t-0.3-6.2q-0.7-2.8-0.2-5.3t2-3.5 2.8-2.2q1.2-1.3 8.7-0.3t10-0.7z" fill="#c88e74" stroke="#c88e74"/>
  <path d="m559.8 305h0.2v3q0 3 1 3t2.5 6.8q1.5 6.7 9.7 11 8.3 4.2 11.3 7.2t4 7.5 1.3 15.3q0.2 10.7 0.4 11l0.3 0.2 0.3 0.2 0.2 0.3 1 0.3 1 0.2 0.2-1 0.3-1 0.3-0.2 0.2-0.3 0.2-0.3 0.3-0.2 0.5 3.5 0.5 3.5 0.5-1 0.5-1h0.5v10q0 10-1 10t-0.2 5q0.7 5 1 6.5l0.2 1.5-11.5-0.2q-11.5-0.3-21-0.3h-9.5l-0.2 0.3-0.3 0.2-0.3 1.5-0.2 1.5h-0.5v-3.5q0-3.5 0.5-5t-7.5-11-14.3-14.7q-6.2-5.3-13.2-9.8t-23.5-12l-16.5-7.5-0.2-0.3-0.3-0.2-0.3-0.2-0.2-0.3-0.2-0.3-0.3-0.2v-6l0.5-1 0.5-1 0.3-0.2 0.2-0.3 0.2-0.3 0.3-0.2 0.3-0.2 0.2-0.3 0.2-0.3 0.3-0.2 0.3-0.2 0.2-0.3 0.2-0.3 0.3-0.2 2.7-1.2q2.8-1.3 7.8-1.6l5-0.2 7 1.2q7 1.3 14.2 5.6 7.3 4.2 10.6 6 3.2 1.7 8.2 1.2t9.8-5.2q4.7-4.8 7.7-11.8t4-14.5 1.3-7.5z" fill="#96664e" stroke="#96664e"/>
  <path d="m211 638l1 0.5 0.2 0.3 0.3 0.2 0.3 0.5 0.2 0.5h-2v3l-2.8 0.5q-2.7 0.5-3.4 1.7-0.8 1.3-2.3 1.6-1.5 0.2-3 2-1.5 1.7-3.5 2-2 0.2-3.5 3.2t-4.3 4.5q-2.7 1.5-3 1.7l-0.2 0.3-0.2 0.3-0.3 0.2-0.3 0.2-0.2 0.3-0.2 0.3-0.3 0.2-0.3 0.2-0.2 0.3-1 0.5-1 0.5-0.2 0.3-0.3 0.2-0.3 0.2-0.2 0.3-2 0.3-2 0.2v-2h2l0.2-1 0.3-1 0.3-0.2 0.2-0.3 0.2-0.3 0.3-0.2 0.3-0.2 0.2-0.3 0.2-0.3q0.3-0.2 1.8-2.7l1.5-2.5 0.5-1 0.5-1 0.5-1 0.5-1 0.3-0.2 0.2-0.3h-2l-0.2 0.3-0.3 0.2-0.3 0.2-0.2 0.3-1 0.5-1 0.5-1 0.5-1 0.5h-1l-0.2-0.3-0.3-0.2-19.7 13.2q-19.8 13.3-20.8 13.8t-1.5 0.8l-0.5 0.2-3 0.2q-3 0.3-7.5-0.4-4.5-0.8-5.7-2.8-1.3-2-1.8-13.5t5-27.5 12.2-21q6.8-5 6.8-6t1-1.2l1-0.3 1-0.5 1-0.5 0.2-0.3 0.3-0.2 0.3-0.2 0.2-0.3v-0.5l1-0.2 1-0.3 0.2-0.3 0.3-0.2 5.7-5.8q5.8-5.7 8.6-4 2.7 1.8 3 2.8 0.2 1 19 17.5 18.7 16.5 22 19.7 3.2 3.3 4.2 3.8z" fill="#001221" stroke="#001221"/>
  <path d="m487.2 815l0.8-4 0.2 1 0.3 1 0.3-1q0.2-1 4.2-0.5t4 3 2 3 2.5 2.7q0.5 2.3 2.7 3 2.3 0.8 2.6 1.6 0.2 0.7 2.2 1.2t8.5 0.8l6.5 0.2v17h-60l0.2-8q0.3-8 0.6-8.2 0.2-0.3 7.7-1.3t7.7-1.7q0.3-0.8 3.3-3.3t3.7-6.5z" fill="#7d7877" stroke="#7d7877"/>
  <path d="m661.2 811l-0.2-13 2.8 1q2.7 1 3.2 13l0.5 12 0.5 1q0.5 1 1.8 1.2 1.2 0.3 3.4-1.4 2.3-1.8 3.8-13.8l1.5-12 0.5 11.5 0.5 11.5 0.5 2q0.5 2 0.8-2l0.2-4h2l1 4.8q1 4.7 47.5 5l46.5 0.2-3 1.2q-3 1.3 0 1.8l3 0.5v1q0 1 3.2 2.7 3.3 1.8 3.6 2.6 0.2 0.7-0.8 1.2l-1 0.5-1 0.5q-1 0.5 2.5 1l3.5 0.5-0.2 0.3-0.3 0.2-0.3 0.2-0.2 0.3-1.5 0.5-1.5 0.5v0.5h-260v-17l2 0.2q2 0.3 68.5 0.6l66.5 0.2 0.2-2q0.3-2 0-15z" fill="#8e8988" stroke="#8e8988"/>
  <path d="m299.5 120.8l0.5 0.2v0.5l4.5 0.5q4.5 0.5 5.5 1l1 0.5 1 0.5 1 0.5 0.2 0.3 0.3 0.2-0.7 2q-0.8 2-2 2.5-1.3 0.5 1.7 2.5t2.7 3l-0.2 1 3.2-1.5q3.3-1.5 3.6-0.5 0.2 1 1.7 1t1.5-1 2-0.8l2 0.3 2-0.3q2-0.2 1.5 2.3t1.3 3.5q1.7 1 2.4 3.2 0.8 2.3-1.2 3-2 0.8-2 1.8t2.2 2.5q2.3 1.5 2.6 3 0.2 1.5 4.7 3.3 4.5 1.7 5.7 3 1.3 1.2 1.6 2.2l0.2 1-1-0.2q-1-0.3-2.5-1.8t-8-1.5-10.3 3.7q-3.7 3.8-7.2 11.8t-4.5 25-2.5 18.5-7.8 4.3q-6.2 2.7-7 5-0.7 2.2-1.7 3.2t-5.7 3q-4.8 2-4.8 3v1h-6v-1q0-1-1-1.2-1-0.3-2-2.6l-1-2.2-0.2-0.5q-0.3-0.5-0.6-0.5h-0.2v-2q0-2-1-2t-0.8-3q0.3-3 2.8-8.5t3.8-9l1.2-3.5-2.5-0.2q-2.5-0.3-6-3.3l-3.5-3-1-0.5-1-0.5-1-0.3-1-0.2v-2l1-0.2 1-0.3 0.2-0.3 0.3-0.2v-1l-0.3-0.2-0.2-0.3h2l0.2 0.3 0.3 0.2 0.3 0.2 0.2 0.3 1.5 0.5q1.5 0.5 3-0.5t3.5-1.5l2-0.5 1-0.5 1-0.5 1-0.5 1-0.5 0.2-0.3 0.3-0.2 0.3-1.5 0.2-1.5-1-0.2-1-0.3-2-0.5q-2-0.5-4.5-1l-2.5-0.5 3.8-0.7q3.7-0.8 4-1l0.2-0.3 0.2-0.3 0.3-0.2 0.3-0.2 0.2-0.3 0.2-0.3 0.3-0.2v-1l-0.3-1.5-0.2-1.5-1-0.2q-1-0.3-4-1.3l-3-1-0.2-0.3-0.3-0.2-0.3-0.2-0.2-0.3-0.2-0.3-0.3-0.2-0.3-0.2-0.2-0.3-0.2-0.3-0.3-0.2-0.3-0.2-0.2-0.3h11l-0.2-0.3-0.3-0.2-0.3-0.2-0.2-0.3-0.2-0.3-0.3-0.2-0.3-0.2-0.2-0.3-1-0.5q-1-0.5-3-1.2l-2-0.8 0.2-1q0.3-1 0.6-2 0.2-1 2.2-1.2 2-0.3 1.5-2-0.5-1.8-1.5-2-1-0.3 0.5-1.3t-0.5-2-2.2-2.3q-0.3-1.2 2-1 2.2 0.3 0.2-0.4-2-0.8-2.8-2.3-0.7-1.5 0-2 0.8-0.5 0.6-4.5l-0.3-4v-3l0.3-1 0.2-1h2q2 0 3 1.8 1 1.7 3.5 1.2t5.7-2.8q3.3-2.2 1.6-2.2-1.8 0-0.3-1.8 1.5-1.7 3.5-2 2-0.2 2.5-1.4 0.5-1.3 1-1z" fill="#2e1c17" stroke="#2e1c17"/>
  <path d="m333.8 554.8l0.7 1.2h0.5l0.5 1.2q0.5 1.3 1.5 1.6l1 0.2-4 6.2q-4 6.3-10.2 13-6.3 6.8-10 12.8-3.8 6-6.6 7.5-2.7 1.5-6.2 5.5t-6.5 12.5-2.5 15 5.5 23.5 8.5 27.5 4 11.5 1 2l0.5 1 0.3 0.2 0.2 0.3 0.2 0.3 0.3 0.2v6l-0.3 0.2-0.2 0.3h-1l-1.5-0.3-1.5-0.2v-0.5l-1-0.5-1-0.5-0.2-0.3-0.3-0.2-0.3-0.2-0.2-0.3-1-0.5q-1-0.5-2-2.2-1-1.8-2-2-1-0.3-6.2-8.6-5.3-8.2-7.3-16.2t-4-33-2.5-27l-0.5-2v-7l-0.3 0.2-0.2 0.3-0.5 0.3-0.5 0.2 0.2-1q0.3-1 8.3-14t12.3-16.5q4.2-3.5 4.4-4.5 0.3-1 4-4.2 3.8-3.3 7.3-4 3.5-0.8 3.5 0.7t1.8 0q1.7-1.5 5-2.7 3.2-1.3 3.4-2 0.3-0.8 2.6-1.6 2.2-0.7 3 0.6z" fill="#0075a3" stroke="#0075a3"/>
  <path d="m484 760.2l1-0.2 7.5 0.5q7.5 0.5 8 1.7 0.5 1.3 1.5 1.6 1 0.2 1.5 1.4 0.5 1.3-0.3 2-0.7 0.8 0 2.3 0.8 1.5 1.8 1.5t0.5 1.8q-0.5 1.7 1 2 1.5 0.2 1 1.4-0.5 1.3 4 2.3t22 1.3l17.5 0.2h25v0.5l2 0.5 2 0.5 2.5 0.5 2.5 0.5 0.2 0.3 0.3 0.2 0.3 0.2 0.2 0.3 1 0.5 1 0.5 0.2 0.3 0.3 0.2 0.3 1.5 0.2 1.5-1.5 0.2-1.5 0.3-1 0.5-1 0.5-2 0.5q-2 0.5-3.5 1t-10.5 2l-9 1.5-2 0.5q-2 0.5 0.5 1l2.5 0.5-6 0.5-6 0.5v0.5h-62l-43-0.2q-43-0.3-46-0.8l-3-0.5-0.2-0.3-0.3-0.2-0.3-8-0.2-8 39-0.5q39-0.5 40-5.3 1-4.7 3.2-6 2.3-1.2 2.6-2.7 0.2-1.5 2.7-3.3 2.5-1.7 3.5-2z" fill="#211b16" stroke="#211b16"/>
  <path d="m641 654.2v-0.2h4q4 0 4.2 2l0.3 2 0.3 0.2 0.2 0.3h1l0.2-0.3 0.3-0.2h0.5l-0.2 9q-0.3 9-0.8 15.5t-1 18.5-1.8 13.8q-1.2 1.7-36.2 2.7l-35 1h-2l-3 0.5-3 0.5-0.2 0.3-0.3 0.2-0.3 0.2-0.2 0.3 1 0.5 1 0.5v0.5l-4.5-0.2q-4.5-0.3-5-0.3h-3.5l-0.5 0.3-0.5 0.2-0.2-1.5q-0.3-1.5-3.6-2.7-3.2-1.3-7-4-3.7-2.8-5-2.8h-1.2v-0.5l-2-0.5-2-0.5-0.2-0.3q-0.3-0.2-1.6-1l-1.2-0.7-1-0.5-1-0.5 2-0.5q2-0.5 2.8-1.8 0.7-1.2-0.8-3.7t-0.8-4.3q0.8-1.7 0.8-2.7t4.5-1.5l4.5-0.5 1-0.3 1-0.2-0.2-1q-0.3-1-0.6-1.2-0.2-0.3-1.4-2.6-1.3-2.2 0.4-4 1.8-1.7 1.8-3v-1.2l-0.2-0.5q-0.3-0.5-0.6-0.5h-0.2l0.2-1.5q0.3-1.5 1.6-2 1.2-0.5 1.2-1.5t2.5-1 2.5-1 1.5-1 1.5-1v-1l1-0.2 1-0.3 1.2 0.3q1.3 0.2 2.8 2.2t1.8 2.2l0.2 0.3 0.2 0.3 0.3 0.2 0.3 1 0.2 1h5l-0.2-1-0.3-1-0.5-1q-0.5-1-2.5-3.5l-2-2.5-0.3-1-0.2-1 2.5 0.2 2.5 0.3 0.2 0.3 0.3 0.2 0.3 0.2 0.2 0.3 0.2 0.3 0.3 0.2 0.3 0.2 0.2 0.3 3 0.7q3 0.8 4.5 2.6 1.5 1.7 6 2.7t5.5 1.5l1 0.5 3.5 0.3 3.5 0.2 0.2-2q0.3-2-0.7-5.5l-1-3.5-0.3-0.2-0.2-0.3 0.2-0.3 0.3-0.2 0.3-0.2 0.2-0.3h5l5.5 2.5q5.5 2.5 8 2.5h2.5l1-0.5 1-0.5 1-0.5 1-0.5-1.8-1.7q-1.7-1.8-2-2.8-0.2-1 2-2 2.3-1 2.6-1.8 0.2-0.7 2.2-1 2-0.2 2.5-2 0.5-1.7 1.7-1 1.3 0.8 3.6 2.6 2.2 1.7 4.7 2 2.5 0.2 2.5-0.8t1-1.2q1-0.3 1-0.6zm-88.8 18q0.3-0.2 0.6 0 0.2 0.3-0.3 0.3t-0.3-0.3zm-4 1q0.3-0.2 0.6 0 0.2 0.3-0.3 0.3t-0.3-0.3z" fill="#0c5677" stroke="#0c5677"/>
  <path d="m607.2 224.5l-1.2-7.5 4.2 8.5q4.3 8.5 7.8 20t7.2 13.3q3.8 1.7 4.6 3 0.7 1.2 1.7 20.7t-0.5 31 1.8 46.5q3.2 35 7.7 36.5t4.7 2.5q0.3 1 0.3 2v1l-0.3 0.2-0.2 0.3 0.2 0.3 0.3 0.2 0.3 2.5 0.2 2.5h-0.5l-0.3-1.5-0.2-1.5-1 0.2-1 0.3-0.2 0.3q-0.3 0.2-2 1-1.8 0.7-3 2.4-1.3 1.8-3.6 2-2.2 0.3-5.2-2.2t-17.5-2.8l-14.5-0.2-0.2-1.5q-0.3-1.5-1-6.5-0.8-5 0.2-5t1-10v-10l0.2-1.5 0.3-1.5 0.5-3.5q0.5-3.5 3-10t4.8-22l2.2-15.5 1.5-0.2q1.5-0.3 2.5 0.2t3 0.8l2 0.2-0.2-1.5q-0.3-1.5-0.3-7t1.7-6q1.8-0.5 1.8-8t1-7.5 0.2-8.5l-0.7-8.5-0.5-1-0.5-1-0.3-0.2-0.2-0.3-0.2-0.3-0.3-0.2-0.3-1.5-0.2-1.5-1 0.2-1 0.3-0.2 0.3-0.3 0.2-0.5 8-0.5 8-0.5 1-0.5 1-0.3 0.2-0.2 0.3-0.2 0.3-0.3 0.2-0.5-1-0.5-1-0.5-1-0.5-1-0.5-3q-0.5-3 0-6.5t0.5-6.5-1-19-2.3-23.5z" fill="#bb8e72" stroke="#bb8e72"/>
  <path d="m516.8 582h0.2v1.2q0 1.3-1.2 2.6-1.3 1.2-4.3 3.7t-2.7 4q0.2 1.5-0.6 2-0.7 0.5-2.2 1.5t-0.8 4.5q0.8 3.5-0.4 3-1.3-0.5 0.7 3t3 4.5 1.5 2l0.5 1 0.3 0.2 0.2 0.3 0.2 0.3 0.3 0.2 0.3 0.2 0.2 0.3 0.2 0.3 0.3 0.2 0.3 0.2 0.2 0.3 0.2 0.3 0.3 0.2 0.5 1 0.5 1 0.3 0.2 0.2 0.3 0.2 0.3q0.3 0.2 0.6 1.2 0.2 1-0.8 1t-1.5-1.2l-0.5-1.3-0.2-0.3-0.3-0.2-0.5-1-0.5-1-0.3-0.2-0.2-0.3-1-0.5-1-0.5-1-0.5q-1-0.5-2.5-1.5l-1.5-1-0.2-0.3-0.3-0.2-0.3-0.2-0.2-0.3-0.2-0.3-0.3-0.2-0.3-0.2-0.2-0.3-0.2-0.3-0.3-0.2-0.3-0.2-0.2-0.3-0.2-0.3-0.3-0.2-0.3-0.2-0.2-0.3-1-0.3-1-0.2 0.2 1 0.3 1 0.5 1.5 0.5 1.5 0.3 0.2 0.2 0.3 0.2 0.3 0.3 0.2 0.5 1 0.5 1 0.3 0.2 0.2 0.3 6.2 6.3q6.3 6.2 9.8 11.7t6.5 7.5 4 4 1.5 3l0.5 1 0.5 1 0.5 1 0.5 1 0.5 1 0.3 0.2 0.2 0.3-4 0.3-4 0.2v2l2.8 1q2.7 1 3 3 0.2 2-1.3 2t-1.5 1v1l5.2 1q5.3 1 5.6 4 0.2 3 2 3 1.7 0 1.7 1v1l0.3 0.2q0.2 0.3 0.7 0.6l0.5 0.2v0.2q0 0.3 0.5 0.6l0.5 0.2v1.2q0 1.3-1.8 3-1.7 1.8-0.4 4 1.2 2.3 1.4 2.6 0.3 0.2 0.6 1.2l0.2 1-1 0.2-1 0.3-4.5 0.5q-4.5 0.5-4.5 1.5t-0.8 2.7q-0.7 1.8 0.8 4.3t0.8 3.7q-0.8 1.3-2.8 1.8l-2 0.5 1 0.5 1 0.5 1.2 0.7q1.3 0.8 1.6 1l0.2 0.3 2 0.5 2 0.5v4.5l-1-0.2-1-0.3-1-0.5-1-0.5-1.5-0.5-1.5-0.5-1-0.5q-1-0.5-17-8t-30-5-28.5 6.5-28.5 5-16.5 1.7l-2.5 0.8-4.5-0.2-4.5-0.3-1-0.5-1-0.5-1-0.3-1-0.2 0.2-1 0.3-1 0.3-1 0.2-1h2l0.2-1 0.3-1 0.3-0.2 0.2-0.3 0.2-0.3q0.3-0.2 6-4.4 5.8-4.3 9.8-7.3t10-9 12.5-15.5 10.7-17.8q4.3-8.2 3.8-11.2t-1.8-3.8q-1.2-0.7 0-5 1.3-4.2 3.3-8.2t5-17.5 4.3-14.3l1.2-0.7-1-0.3-1-0.2v-2l-2-0.2-2-0.3v-0.5l4 0.5q4 0.5 4.2-3 0.3-3.5 1.6-4.3 1.2-0.7 5.2-0.2t14.5 4.5 15.5 3.5 9.2-2.8q4.3-2.2 4.6-2.2z" fill="#046d9a" stroke="#046d9a"/>
  <path d="m84.5 524l3.5 0.5 1 0.3 1 0.2v0.2q0 0.3 0.5 0.6l0.5 0.2v0.2q0 0.3 0.5 0.6l0.5 0.2 22.2 21.5q22.3 21.5 20.3 25t-15 19-13.3 16.5l-0.2 1h-0.2q-0.3 0-0.6 0.5l-0.2 0.5h-0.2q-0.3 0-0.6 0.5l-0.2 0.5h-0.2q-0.3 0-0.6 0.5l-0.2 0.5h-0.2q-0.3 0-0.6 0.5l-0.2 0.5h-0.2q-0.3 0-0.6 0.5l-0.2 0.5h-0.2q-0.3 0-0.6 0.5l-0.2 0.5-13 15.5q-13 15.5-16.8 19-3.7 3.5-12.7 12.5t-9.3 9.2l-0.2 0.3-0.2 0.3-0.3 0.2-0.3 0.2-0.2 0.3-0.2 0.3-0.3 0.2-0.3 0.2-0.2 0.3-0.2 0.3-0.3 0.2-0.3 0.2-0.2 0.3-0.5 0.3-0.5 0.2h-0.5l-0.3 0.5-0.2 0.5h-3l0.2-1 0.3-1 0.3-0.2 0.2-0.3 0.2-0.3 0.3-0.2 0.3-0.2 0.2-0.3 0.2-0.3 0.3-0.2 0.5-1 0.5-1 0.3-0.2 0.2-0.3 0.2-0.3 0.3-0.2 0.3-0.2 0.2-0.3 0.2-0.3q0.3-0.2 10-10.4 9.8-10.3 20.3-22.3t11.7-17.7q1.3-5.8 2-14.3l0.8-8.5-1-0.2-1-0.3h-11.5q-11.5 0-13 1.5t-4.5 2-7.5 2.5-6.7 3.3q-2.3 1.2-3 2.7-0.8 1.5-10.8 6.3-10 4.7-12 5.2l-2 0.5-1 0.5-1 0.5-0.2 0.3-0.3 0.2-0.3 0.2-0.2 0.3h-2l-0.2-0.3-0.3-0.2-0.3-0.2-0.2-0.3 0.2-0.3 0.3-0.2 0.3-0.2 0.2-0.3 0.2-0.3 0.3-0.2 0.3-1 0.2-1 0.5-0.2 0.5-0.3v-0.5l0.5-0.2 0.5-0.3v-0.5l0.5-0.2 0.5-0.3 1-0.5q1-0.5 16-9.5t21-14l6-5 0.2-0.3 0.3-0.2 0.3-0.2 0.2-0.3 0.2-0.3 0.3-0.2 0.5-1.5 0.5-1.5 0.3-0.2 0.2-0.3h-3.5q-3.5 0-4.5 0t0-2.7q1-2.8-1.5-3l-2.5-0.3 0.2-0.3 0.3-0.2 0.5-1q0.5-1 1-2t4.8-4.2l4.2-3.3 1-0.5 1-0.5 0.2-0.3 0.3-0.2 0.3-0.2 0.2-0.3-1-0.5q-1-0.5-3.5-0.8l-2.5-0.2v-2h3v-1q0-1 4-3.8l4-2.7 0.2-0.3 0.3-0.2 0.3-0.2 0.2-0.3 0.2-0.3 0.3-0.2 0.3-0.2 0.2-0.3 0.2-0.3 0.3-0.2 0.3-0.2 0.2-0.3-2.5-0.5q-2.5-0.5-3.5-0.8l-1-0.2v-2q0-2 1-2t1.2-1q0.3-1 1.6-1.5 1.2-0.5 1.2-1.5t-1.5-1.2q-1.5-0.3-2.3-2l-0.7-1.8 0.3-0.2 0.2-0.3 0.2-0.3 0.3-0.2 0.3-0.2 0.2-0.3 0.2-0.3 0.3-0.2 0.3-0.2q0.2-0.3 4.2-1.8l4-1.5 0.2-0.3 0.3-0.2 0.3-0.2 0.2-0.3 0.2-0.3 0.3-0.2 0.3-1 0.2-1-4.5-0.8q-4.5-0.7-0.5-0.7t6 0.5 5.5 1zm-36.3 77.2q0.3-0.2 0.6 0 0.2 0.3-0.3 0.3t-0.3-0.3z" fill="#002d49" stroke="#002d49"/>
  <path d="m700.8 717h0.2v0.5l1 0.3 1 0.2v2l-1 0.2-1 0.3 1.5 0.5 1.5 0.5-1.5 0.3-1.5 0.2v2h9v0.5l-2 0.5-2 0.5-16 0.5q-16 0.5-24.5 0.8l-8.5 0.2v18h42.5q42.5 0 42.5 1t1 1h1l3 0.2 3 0.3-1 0.3-1 0.2v2l-3 0.2-3 0.3v0.5l-17 0.2q-17 0.3-26 0.8t-10 1.5-8.5 1-34.5-0.5-27 0.5-2.5 2.5-13 2-11.5-2.2l-1-2.8h-6v-0.5l-2.5-0.5q-2.5-0.5-11.5-3.8-9-3.2-10.5-6.7l-1.5-3.5-0.2-2-0.3-2-0.5-1.5q-0.5-1.5-1-4.5l-0.5-3-0.3-2-0.2-2 0.5-0.2 0.5-0.3h3.5q0.5 0 5 0.3l4.5 0.2 63-1.2q63-1.3 65.2-2.6 2.3-1.2 2.6-1.2z" fill="#2c201e" stroke="#2c201e"/>
  <path d="m556.2 427.5l-0.2-1.5 4.8 5q4.7 5 7.7 14t5.5 19.5 3.8 21.3q1.2 10.7 1.2 16.2t6.5 10 15.7 9.8q9.3 5.2 10.3 6.2t1.3 1.2l0.2 0.3 0.2 0.3 0.3 0.2 0.3 0.2 0.2 0.3 0.2 0.3 0.3 0.2 0.3 0.2 0.2 0.3 0.2 0.3 0.3 0.2 0.3 0.2 0.2 0.3 0.2 0.3 0.3 0.2 0.3 0.2 0.2 0.3 0.2 0.3 0.3 0.2 0.3 0.2 0.2 0.3 0.2 0.3 0.3 0.2v2l-0.3-0.2-0.2-0.3-2-0.5-2-0.5-0.2-0.3-0.3-0.2-0.3-0.2-0.2-0.3-0.2-0.3-0.3-0.2-0.3-0.2-0.2-0.3-0.2-0.3-0.3-0.2-0.3-0.2q-0.2-0.3-2.7-2.3l-2.5-2-1-0.5-1-0.5-0.2-0.3-0.3-0.2-0.3-0.2-0.2-0.3-1.5-0.3-1.5-0.2 0.2 8.5q0.3 8.5 0.3 9.5v1l-0.3 0.2-0.2 0.3 0.2 0.3 0.3 0.2v4l-0.3 0.2-0.2 0.3h-3l-0.2-0.3-0.3-0.2-0.3-0.2-0.2-0.3-0.2-0.3-0.3-0.2-0.3-0.2-0.2-0.3-0.2-0.3-0.3-0.2-0.3-0.2-0.2-0.3-1-0.3-1-0.2-0.2-8-0.3-8-0.3 1-0.2 1-2 0.2-2 0.3-0.2 0.3-0.3 0.2-0.5 1-0.5 1-0.3 0.2-0.2 0.3-0.2 0.3-0.3 0.2-0.7 3.5q-0.8 3.5-1.8 3.5t-2.2 5q-1.3 5-3.3 11t-2.5 8l-0.5 2-0.5 2-0.5 2-0.3 0.5-0.2 0.5h-0.5l-0.3 0.2-0.2 0.3-4 0.3-4 0.2-0.2-0.5-0.3-0.5-0.3-0.2-0.2-0.3-0.2-0.3-0.3-0.2-0.3-0.2-0.2-0.3-0.2-0.3-0.3-0.2-0.5-1-0.5-1-0.3-0.2-0.2-0.3-0.2-0.3q-0.3-0.2-4.8-5.2t-5.5-9.5-1-13.5 5-17.5 9.3-11.7q4.2-3.3 3.4-22-0.7-18.8-3-35.3-2.2-16.5-3.2-16.5t-1.2-2l-0.3-2-0.5-3q-0.5-3-0.8-4.5z" fill="#155471" stroke="#155471"/>
  <path d="m319.8 307.8l0.2-0.3h5l1 1.5q1 1.5 3.2 2.2 2.3 0.8 2.6 2.3 0.2 1.5 3 3 2.7 1.5 9.2 6t7.5 4.5 1.3 1.2q0.2 1.3 1.7 1.6 1.5 0.2 2 1.4 0.5 1.3 2 1.8t0.5 0.8q-1 0.2-1 1.2t1.5 1 2 1.2q0.5 1.3 1.5 1.6 1 0.2 0.8 1.7-0.3 1.5 2 3.5 2.2 2 2.2 3t1.5 1 1.5 1 1.8 1q1.7 0 3 0.5 1.2 0.5 1.2-0.5t2.2 0q2.3 1 2.8 2t0.8-0.5q0.2-1.5 1.4-1 1.3 0.5 1.3 3t3.5 6 4.2 5.3q0.8 1.7 3.8 2.4 3 0.8 3 2.3t7 1.3q7-0.3 10.2-4 3.3-3.8 3.8-4.8l0.5-1 0.3-0.2 0.2-0.3h2l0.2 0.3 0.3 0.2 0.3-0.2 0.2-0.3 0.2-0.3 0.3-0.2 0.3-0.2 0.2-0.3 1.5-0.3 1.5-0.2-0.2 1-0.3 1-0.3 1-0.2 1h-2l-0.2 1.5-0.3 1.5-0.3 1-0.2 1-0.2 0.5q-0.3 0.5-3.6 3.7-3.2 3.3-7.2 5.8t-9.5 2.5-17.5-6l-12-6-1-0.5-1-0.5-0.2-0.3-0.3-0.2-0.3-0.2-0.2-0.3-0.2-0.3-0.3-0.2-0.3-0.2-0.2-0.3-1-0.3-1-0.2v7l-0.8-0.5q-0.7-0.5-1.7 7t-2.5 11.5-4.5 4.5-6.5 0-5.5 2.5-2.5 6-0.8 4l-0.2 1-0.2 3.5-0.3 3.5-0.5 1-0.5 1-0.3-0.2-0.2-0.3-0.2-0.3-0.3-0.2-0.3-0.2-0.2-0.3-0.2-0.3-0.3-0.2-0.3-0.2-0.2-0.3-0.2-0.3-0.3-0.2-0.5-1-0.5-1-0.5-1-0.5-1-0.3-0.2-0.2-0.3-0.2-0.3q-0.3-0.2-2.8-4.2t-1.8-12.5q0.8-8.5-2.7-10t-4.3-4q-0.7-2.5-2.4-9.5l-1.8-7-0.2-0.5q-0.3-0.5-0.6-0.5h-0.2l0.2-1.5q0.3-1.5-0.7-3.5l-1-2-0.3-1-0.2-1 1 0.2q1 0.3 2 0.8l1 0.5 0.2 0.3 0.3 0.2 0.3-1 0.2-1h3l-0.2-1.5-0.3-1.5-0.5-1.5q-0.5-1.5-0.8-2.5-0.2-1 0.8-1t-2.2-10q-3.3-10-4.6-14l-1.2-4h0.5l0.5-1.5 0.5-1.5 0.5-2.5 0.5-2.5 0.3-0.2zm103.2 56.4q1-0.2 0.8 0.8-0.3 1-2 2-1.8 1-0.8-0.8 1-1.7 2-2z" fill="#5f3827" stroke="#5f3827"/>
  <path d="m320.2 362l-0.2-1h1q1 0 2.2 7.5 1.3 7.5 2 10 0.8 2.5 4.3 4t2.7 10q-0.7 8.5 1.8 12.5t2.8 4.2l0.2 0.3 0.2 0.3 0.3 0.2 0.5 1 0.5 1 0.5 1 0.5 1 0.3 0.2 0.2 0.3 0.2 0.3 0.3 0.2 0.3 0.2 0.2 0.3 0.2 0.3 0.3 0.2 0.3 0.2 0.2 0.3 0.2 0.3 0.3 0.2 0.5-1 0.5-1 0.3-3.5 0.2-3.5h0.5l1.5 10.5q1.5 10.5 2.5 24t-1 32-2.5 20l-0.5 1.5-0.5 2-0.5 2-0.3 0.2-0.2 0.3-0.2 0.3-0.3 0.2-0.5-1-0.5-1h-0.5v-3h-2l-0.2-7q-0.3-7-0.8-11t-3-11.5-5-11.5-6.2-7.5q-3.8-3.5-6.6-10-2.7-6.5-3.7-9t-1-9 0.5-13-0.5-9.5-4-9l-3-6-0.3-0.2-0.2-0.3-0.2-0.3-0.3-0.2-0.3-1-0.2-1h1q1 0 1.2 1 0.3 1 1.6 0.8 1.2-0.3 2-1 0.7-0.8 0.4-2.3-0.2-1.5 1.3-1.5t1.5-4.5v-4.5l0.5-0.2q0.5-0.3 0.5-0.6v-0.2l0.2-0.5q0.3-0.5 0.8-1l0.5-0.5 0.3-0.2 0.2-0.3 0.2-0.3 0.3-0.2 0.5 1 0.5 1 0.3 0.2 0.2 0.3h1l0.2-0.3 0.3-0.2 0.3 0.2 0.2 0.3 0.2 0.3 0.3 0.2v-1.5q0-1.5-0.3-2.5zm-11 20.2q0.3-0.2 0.6 0 0.2 0.3-0.3 0.3t-0.3-0.3z" fill="#935a4c" stroke="#935a4c"/>
  <path d="m553.8 739.2l0.2 0.3 0.2 0.3 0.3 0.2 0.3 0.2 0.2 0.3 1 0.5 1 0.5 1 0.3 1 0.2v-3l1.5 3.5q1.5 3.5 10.5 6.7 9 3.3 11.5 3.8l2.5 0.5v0.5h-0.5v2l0.3 0.2 0.2 0.3 1 0.3 1 0.2 0.2 1 0.3 1 0.3 0.2 0.2 0.3 0.2 0.3 0.3 0.2v3l-0.3 0.2-0.2 0.3-2.5 0.5q-2.5 0.5-5.5 0.5h-6l0.2 0.3 0.3 0.2 0.3 0.2 0.2 0.3 5.5 0.3 5.5 0.2-0.2 1-0.3 1-0.3 0.2-0.2 0.3h-5q-5 0-11.5 1t-8.3 4.7l-1.7 3.8-0.3 0.2-0.2 0.3-3.5 0.5-3.5 0.5v0.5l-17.5-0.2q-17.5-0.3-22-1.3t-5.3-2.3q-0.7-1.2-0.4-3.2 0.2-2-0.8-2t-1.8-1.5q-0.7-1.5 0-2.3 0.8-0.7 0.3-2-0.5-1.2-1.5-1.4-1-0.3-1.5-1.6-0.5-1.2-8-1.7l-7.5-0.5v-0.5l1-0.5 1-0.5 1.5-0.5 1.5-0.5 0.2-0.3 0.3-0.2 0.3-0.2 0.2-0.3 28-12q28-12 29.8-11.7 1.7 0.2 3.2 3.2t1.8 3.2z" fill="#b6c4c4" stroke="#b6c4c4"/>
 </g>
</svg>
